0 Max the PostHog Hedgehog
0 Name: max-posthog-seated.ldr
0 Author: Designed with Codex for Adam
0 // GoBricks custom colors; official LDraw part library required.
0 !COLOUR GoBricks_Dark_Red CODE 10014 VALUE #7F131B EDGE #333333
0 !COLOUR GoBricks_Red CODE 10010 VALUE #FF0000 EDGE #333333
0 !COLOUR GoBricks_Coral CODE 10018 VALUE #FF5869 EDGE #333333
0 !COLOUR GoBricks_Magenta CODE 10013 VALUE #B51C7D EDGE #333333
0 !COLOUR GoBricks_Dark_Pink CODE 10012 VALUE #E95DA2 EDGE #333333
0 !COLOUR GoBricks_Bright_Pink CODE 10011 VALUE #F6ADCD EDGE #333333
0 !COLOUR GoBricks_Light_Pink CODE 10017 VALUE #F2C6CF EDGE #333333
0 !COLOUR GoBricks_Dark_Brown CODE 10082 VALUE #3B180D EDGE #333333
0 !COLOUR GoBricks_Reddish_Brown CODE 10081 VALUE #692E14 EDGE #333333
0 !COLOUR GoBricks_Dark_Orange CODE 10083 VALUE #A65322 EDGE #333333
0 !COLOUR GoBricks_Medium_Nougat CODE 10084 VALUE #AF7446 EDGE #333333
0 !COLOUR GoBricks_Nougat CODE 10038 VALUE #DD8C59 EDGE #333333
0 !COLOUR GoBricks_Orange CODE 10021 VALUE #F57D20 EDGE #333333
0 !COLOUR GoBricks_Bright_Light_Orange CODE 10036 VALUE #FBAB18 EDGE #333333
0 !COLOUR GoBricks_Yellow CODE 10030 VALUE #FFCD03 EDGE #333333
0 !COLOUR GoBricks_Bright_Light_Yellow CODE 10033 VALUE #FFF579 EDGE #333333
0 !COLOUR GoBricks_Light_Yellow CODE 10029 VALUE #ECD898 EDGE #333333
0 !COLOUR GoBricks_Egg_White CODE 10027 VALUE #EFDBB2 EDGE #333333
0 !COLOUR GoBricks_Light_Nougat CODE 10032 VALUE #F2E0BD EDGE #333333
0 !COLOUR GoBricks_Tan CODE 10031 VALUE #DDC48E EDGE #333333
0 !COLOUR GoBricks_Dark_Tan CODE 10034 VALUE #947E5F EDGE #333333
0 !COLOUR GoBricks_Army_Green CODE 10041 VALUE #555631 EDGE #333333
0 !COLOUR GoBricks_Dark_Green CODE 10047 VALUE #004A2D EDGE #333333
0 !COLOUR GoBricks_Olive_Green CODE 10049 VALUE #7C9150 EDGE #333333
0 !COLOUR GoBricks_Green CODE 10040 VALUE #009247 EDGE #333333
0 !COLOUR GoBricks_Bright_Green CODE 10043 VALUE #00AF4D EDGE #333333
0 !COLOUR GoBricks_Lime CODE 10042 VALUE #9ACA3C EDGE #333333
0 !COLOUR GoBricks_Yellowish_Green CODE 10044 VALUE #D9E4A7 EDGE #333333
0 !COLOUR GoBricks_Light_Aqua CODE 10045 VALUE #C1E4DA EDGE #333333
0 !COLOUR GoBricks_Sand_Green CODE 10048 VALUE #A0BCAC EDGE #333333
0 !COLOUR GoBricks_Medium_Azure CODE 10046 VALUE #00BED3 EDGE #333333
0 !COLOUR GoBricks_Dark_Turquoise CODE 10243 VALUE #00838F EDGE #333333
0 !COLOUR GoBricks_Dark_Blue CODE 10055 VALUE #00395E EDGE #333333
0 !COLOUR GoBricks_Blue CODE 10050 VALUE #006CB7 EDGE #333333
0 !COLOUR GoBricks_Dark_Azure CODE 10051 VALUE #00A3DA EDGE #333333
0 !COLOUR GoBricks_Bright_Light_Blue CODE 10053 VALUE #78BFEA EDGE #333333
0 !COLOUR GoBricks_Medium_Blue CODE 10052 VALUE #489ECE EDGE #333333
0 !COLOUR GoBricks_Sand_Blue CODE 10054 VALUE #7A89C0 EDGE #333333
0 !COLOUR GoBricks_Medium_Lilac CODE 10060 VALUE #4C2F92 EDGE #333333
0 !COLOUR GoBricks_Medium_Lavender CODE 10062 VALUE #9675B4 EDGE #333333
0 !COLOUR GoBricks_Lavender CODE 10063 VALUE #BCA6D0 EDGE #333333
0 !COLOUR GoBricks_Pink_Purple CODE 10064 VALUE #DECDE7 EDGE #333333
0 !COLOUR GoBricks_Light_Slate_Gray CODE 10056 VALUE #CBD3EB EDGE #333333
0 !COLOUR GoBricks_Black CODE 10080 VALUE #161616 EDGE #333333
0 !COLOUR GoBricks_Dark_Bluish_Gray CODE 10072 VALUE #646767 EDGE #333333
0 !COLOUR GoBricks_Light_Bluish_Gray CODE 10071 VALUE #A0A19F EDGE #333333
0 !COLOUR GoBricks_Pale_Gray CODE 10092 VALUE #D9D9D6 EDGE #333333
0 !COLOUR GoBricks_Cool_White CODE 10091 VALUE #FFFFFF EDGE #333333
0 !COLOUR GoBricks_White CODE 10090 VALUE #FFFFFA EDGE #333333
0 // Lay out the feet and foundation · front
1 10082 -80 -8 0 0 0 -1 0 1 0 1 0 0 3035.dat
1 10082 80 -8 0 0 0 -1 0 1 0 1 0 0 3035.dat
1 10082 0 -8 80 0 0 -1 0 1 0 1 0 0 3035.dat
1 10082 -140 -8 100 0 0 -1 0 1 0 1 0 0 3034.dat
0 STEP
0 // Lay out the feet and foundation · front
1 10082 140 -8 100 0 0 -1 0 1 0 1 0 0 3034.dat
1 10082 -180 -8 100 0 0 -1 0 1 0 1 0 0 3795.dat
1 10082 180 -8 100 0 0 -1 0 1 0 1 0 0 3795.dat
1 10082 -210 -8 100 0 0 -1 0 1 0 1 0 0 3710.dat
0 STEP
0 // Lay out the feet and foundation · front
1 10082 210 -8 100 0 0 -1 0 1 0 1 0 0 3710.dat
1 10082 -80 -8 140 0 0 -1 0 1 0 1 0 0 3032.dat
1 10082 80 -8 140 0 0 -1 0 1 0 1 0 0 3032.dat
0 STEP
0 // Lay out the feet and foundation · rear
1 10082 0 -8 180 1 0 0 0 1 0 0 0 1 3020.dat
0 STEP
0 // Lock the coat edges to the foundation
1 10082 -140 -16 100 1 0 0 0 1 0 0 0 1 3034.dat
1 10082 140 -16 100 1 0 0 0 1 0 0 0 1 3034.dat
0 STEP
0 // Tie the feet and foundation · front
1 10082 -80 -16 0 0 0 -1 0 1 0 1 0 0 3035.dat
1 10082 80 -16 0 0 0 -1 0 1 0 1 0 0 3035.dat
1 10082 0 -16 80 0 0 -1 0 1 0 1 0 0 3035.dat
1 10082 -140 -16 50 0 0 -1 0 1 0 1 0 0 3021.dat
0 STEP
0 // Tie the feet and foundation · front
1 10082 140 -16 50 0 0 -1 0 1 0 1 0 0 3021.dat
1 10082 -180 -16 60 0 0 -1 0 1 0 1 0 0 3022.dat
1 10082 180 -16 60 0 0 -1 0 1 0 1 0 0 3022.dat
1 10082 -210 -16 70 0 0 -1 0 1 0 1 0 0 3024.dat
0 STEP
0 // Tie the feet and foundation · front
1 10082 210 -16 70 0 0 -1 0 1 0 1 0 0 3024.dat
1 10082 -50 -16 140 0 0 -1 0 1 0 1 0 0 3666.dat
1 10082 50 -16 140 0 0 -1 0 1 0 1 0 0 3666.dat
0 STEP
0 // Tie the feet and foundation · rear
1 10082 -160 -16 130 1 0 0 0 1 0 0 0 1 3666.dat
1 10082 -80 -16 160 0 0 -1 0 1 0 1 0 0 3020.dat
1 10082 120 -16 140 1 0 0 0 1 0 0 0 1 3795.dat
1 10082 190 -16 140 0 0 -1 0 1 0 1 0 0 3023.dat
0 STEP
0 // Tie the feet and foundation · rear
1 10082 210 -16 130 0 0 -1 0 1 0 1 0 0 3024.dat
1 10082 -160 -16 150 1 0 0 0 1 0 0 0 1 3710.dat
1 10082 -110 -16 170 0 0 -1 0 1 0 1 0 0 3623.dat
1 10082 -140 -16 170 1 0 0 0 1 0 0 0 1 3023.dat
0 STEP
0 // Tie the feet and foundation · rear
1 10082 0 -16 180 1 0 0 0 1 0 0 0 1 3020.dat
1 10082 90 -16 180 1 0 0 0 1 0 0 0 1 3021.dat
1 10082 140 -16 170 1 0 0 0 1 0 0 0 1 3023.dat
0 STEP
0 // Tie the feet and foundation · front
1 10081 -80 -24 -60 1 0 0 0 1 0 0 0 1 3020.dat
1 10081 80 -24 -60 1 0 0 0 1 0 0 0 1 3020.dat
1 10081 -80 -24 -20 1 0 0 0 1 0 0 0 1 3020.dat
1 10081 80 -24 -20 1 0 0 0 1 0 0 0 1 3020.dat
0 STEP
0 // Tie the feet and foundation · front
1 10082 -40 -24 60 1 0 0 0 1 0 0 0 1 3036.dat
1 10082 80 -24 80 0 0 -1 0 1 0 1 0 0 3035.dat
1 10082 -140 -24 100 0 0 -1 0 1 0 1 0 0 3034.dat
1 10082 140 -24 100 0 0 -1 0 1 0 1 0 0 3034.dat
0 STEP
0 // Tie the feet and foundation · front
1 10082 -180 -24 100 0 0 -1 0 1 0 1 0 0 3795.dat
1 10082 180 -24 100 0 0 -1 0 1 0 1 0 0 3795.dat
1 10082 -210 -24 100 0 0 -1 0 1 0 1 0 0 3710.dat
1 10082 210 -24 100 0 0 -1 0 1 0 1 0 0 3710.dat
0 STEP
0 // Tie the feet and foundation · rear
1 10082 -40 -24 160 1 0 0 0 1 0 0 0 1 3035.dat
1 10082 80 -24 180 1 0 0 0 1 0 0 0 1 3020.dat
0 STEP
0 // Build the lower coat · front
1 10031 -80 -48 20 1 0 0 0 1 0 0 0 1 3001.dat
1 10031 0 -48 20 1 0 0 0 1 0 0 0 1 3001.dat
1 10031 80 -48 20 1 0 0 0 1 0 0 0 1 3001.dat
1 10082 -140 -48 60 0 0 -1 0 1 0 1 0 0 3001.dat
0 STEP
0 // Build the lower coat · front
1 10082 140 -48 60 0 0 -1 0 1 0 1 0 0 3001.dat
1 10082 -180 -48 80 0 0 -1 0 1 0 1 0 0 3001.dat
1 10082 -100 -48 80 0 0 -1 0 1 0 1 0 0 3001.dat
1 10082 -60 -48 80 0 0 -1 0 1 0 1 0 0 3001.dat
0 STEP
0 // Build the lower coat · front
1 10082 -20 -48 80 0 0 -1 0 1 0 1 0 0 3001.dat
1 10082 20 -48 80 0 0 -1 0 1 0 1 0 0 3001.dat
1 10082 60 -48 80 0 0 -1 0 1 0 1 0 0 3001.dat
1 10082 100 -48 80 0 0 -1 0 1 0 1 0 0 3001.dat
0 STEP
0 // Build the lower coat · front
1 10082 180 -48 80 0 0 -1 0 1 0 1 0 0 3001.dat
1 10082 -210 -48 100 0 0 -1 0 1 0 1 0 0 3010.dat
1 10082 210 -48 100 0 0 -1 0 1 0 1 0 0 3010.dat
1 10082 -140 -48 140 0 0 -1 0 1 0 1 0 0 3001.dat
0 STEP
0 // Build the lower coat · front
1 10082 140 -48 140 0 0 -1 0 1 0 1 0 0 3001.dat
0 STEP
0 // Build the lower coat · rear
1 10082 -180 -48 140 0 0 -1 0 1 0 1 0 0 3003.dat
1 10082 -100 -48 160 0 0 -1 0 1 0 1 0 0 3001.dat
1 10082 -60 -48 160 0 0 -1 0 1 0 1 0 0 3001.dat
1 10082 -20 -48 160 0 0 -1 0 1 0 1 0 0 3001.dat
0 STEP
0 // Build the lower coat · rear
1 10082 20 -48 160 0 0 -1 0 1 0 1 0 0 3001.dat
1 10082 60 -48 160 0 0 -1 0 1 0 1 0 0 3001.dat
1 10082 100 -48 160 0 0 -1 0 1 0 1 0 0 3001.dat
1 10082 180 -48 140 0 0 -1 0 1 0 1 0 0 3003.dat
0 STEP
0 // Add left quill attachment studs
1 10082 -210 -72 70 0 0 1 0 1 0 -1 0 0 87087.dat
0 STEP
0 // Add left quill attachment studs
1 10082 -210 -72 110 0 0 1 0 1 0 -1 0 0 87087.dat
0 STEP
0 // Add left quill attachment studs
1 10082 -190 -72 50 0 0 1 0 1 0 -1 0 0 87087.dat
0 STEP
0 // Add back quill attachment studs
1 10082 -170 -72 150 -1 0 0 0 1 0 0 0 -1 87087.dat
1 10082 -150 -72 170 -1 0 0 0 1 0 0 0 -1 87087.dat
1 10082 -90 -72 190 -1 0 0 0 1 0 0 0 -1 87087.dat
1 10082 -50 -72 190 -1 0 0 0 1 0 0 0 -1 87087.dat
0 STEP
0 // Add back quill attachment studs
1 10082 -10 -72 190 -1 0 0 0 1 0 0 0 -1 87087.dat
1 10082 30 -72 190 -1 0 0 0 1 0 0 0 -1 87087.dat
1 10082 70 -72 190 -1 0 0 0 1 0 0 0 -1 87087.dat
1 10082 110 -72 190 -1 0 0 0 1 0 0 0 -1 87087.dat
0 STEP
0 // Add back quill attachment studs
1 10082 130 -72 170 -1 0 0 0 1 0 0 0 -1 87087.dat
0 STEP
0 // Add right quill attachment studs
1 10082 150 -72 30 0 0 -1 0 1 0 1 0 0 87087.dat
0 STEP
0 // Add front quill attachment studs
1 10082 170 -72 50 1 0 0 0 1 0 0 0 1 87087.dat
0 STEP
0 // Add back quill attachment studs
1 10082 190 -72 150 -1 0 0 0 1 0 0 0 -1 87087.dat
0 STEP
0 // Add right quill attachment studs
1 10082 210 -72 90 0 0 -1 0 1 0 1 0 0 87087.dat
0 STEP
0 // Add back quill attachment studs
1 10082 210 -72 130 -1 0 0 0 1 0 0 0 -1 87087.dat
0 STEP
0 // Build the lower coat · front
1 10031 -80 -72 20 1 0 0 0 1 0 0 0 1 3001.dat
1 10031 0 -72 20 1 0 0 0 1 0 0 0 1 3001.dat
1 10031 80 -72 20 1 0 0 0 1 0 0 0 1 3001.dat
1 10082 -140 -72 60 0 0 -1 0 1 0 1 0 0 3001.dat
0 STEP
0 // Build the lower coat · front
1 10082 130 -72 60 0 0 -1 0 1 0 1 0 0 3010.dat
1 10082 -170 -72 80 0 0 -1 0 1 0 1 0 0 3010.dat
1 10082 -80 -72 60 1 0 0 0 1 0 0 0 1 3001.dat
1 10082 0 -72 60 1 0 0 0 1 0 0 0 1 3001.dat
0 STEP
0 // Build the lower coat · front
1 10082 80 -72 60 1 0 0 0 1 0 0 0 1 3001.dat
1 10082 150 -72 80 0 0 -1 0 1 0 1 0 0 3010.dat
1 10082 190 -72 80 0 0 -1 0 1 0 1 0 0 3010.dat
1 10082 -190 -72 100 0 0 -1 0 1 0 1 0 0 3010.dat
0 STEP
0 // Build the lower coat · front
1 10082 170 -72 100 0 0 -1 0 1 0 1 0 0 3010.dat
1 10082 210 -72 70 1 0 0 0 1 0 0 0 1 3005.dat
1 10082 -210 -72 90 1 0 0 0 1 0 0 0 1 3005.dat
1 10082 -80 -72 100 1 0 0 0 1 0 0 0 1 3001.dat
0 STEP
0 // Build the lower coat · front
1 10082 0 -72 100 1 0 0 0 1 0 0 0 1 3001.dat
1 10082 80 -72 100 1 0 0 0 1 0 0 0 1 3001.dat
1 10082 -140 -72 130 0 0 -1 0 1 0 1 0 0 3002.dat
1 10082 130 -72 120 0 0 -1 0 1 0 1 0 0 3004.dat
0 STEP
0 // Build the lower coat · front
1 10082 210 -72 110 1 0 0 0 1 0 0 0 1 3005.dat
0 STEP
0 // Build the lower coat · rear
1 10082 -210 -72 130 1 0 0 0 1 0 0 0 1 3005.dat
1 10082 -170 -72 130 1 0 0 0 1 0 0 0 1 3005.dat
1 10082 -80 -72 140 1 0 0 0 1 0 0 0 1 3001.dat
1 10082 0 -72 140 1 0 0 0 1 0 0 0 1 3001.dat
0 STEP
0 // Build the lower coat · rear
1 10082 80 -72 140 1 0 0 0 1 0 0 0 1 3001.dat
1 10082 150 -72 140 0 0 -1 0 1 0 1 0 0 3004.dat
1 10082 190 -72 130 1 0 0 0 1 0 0 0 1 3005.dat
1 10082 -190 -72 150 1 0 0 0 1 0 0 0 1 3005.dat
0 STEP
0 // Build the lower coat · rear
1 10082 130 -72 150 1 0 0 0 1 0 0 0 1 3005.dat
1 10082 170 -72 150 1 0 0 0 1 0 0 0 1 3005.dat
1 10082 -100 -72 170 1 0 0 0 1 0 0 0 1 3010.dat
1 10082 -20 -72 170 1 0 0 0 1 0 0 0 1 3010.dat
0 STEP
0 // Build the lower coat · rear
1 10082 60 -72 170 1 0 0 0 1 0 0 0 1 3010.dat
1 10082 110 -72 170 1 0 0 0 1 0 0 0 1 3005.dat
1 10082 150 -72 170 1 0 0 0 1 0 0 0 1 3005.dat
1 10082 -110 -72 190 1 0 0 0 1 0 0 0 1 3005.dat
0 STEP
0 // Build the lower coat · rear
1 10082 -70 -72 190 1 0 0 0 1 0 0 0 1 3005.dat
1 10082 -30 -72 190 1 0 0 0 1 0 0 0 1 3005.dat
1 10082 10 -72 190 1 0 0 0 1 0 0 0 1 3005.dat
1 10082 50 -72 190 1 0 0 0 1 0 0 0 1 3005.dat
0 STEP
0 // Build the lower coat · rear
1 10082 90 -72 190 1 0 0 0 1 0 0 0 1 3005.dat
0 STEP
0 // Build the lower coat · front
1 10031 -80 -96 0 1 0 0 0 1 0 0 0 1 3001.dat
1 10031 0 -96 0 1 0 0 0 1 0 0 0 1 3001.dat
1 10031 80 -96 0 1 0 0 0 1 0 0 0 1 3001.dat
1 10082 -140 -96 60 0 0 -1 0 1 0 1 0 0 3001.dat
0 STEP
0 // Build the lower coat · front
1 10031 -80 -96 30 1 0 0 0 1 0 0 0 1 3010.dat
1 10031 0 -96 30 1 0 0 0 1 0 0 0 1 3010.dat
1 10031 80 -96 30 1 0 0 0 1 0 0 0 1 3010.dat
1 10082 140 -96 60 0 0 -1 0 1 0 1 0 0 3001.dat
0 STEP
0 // Build the lower coat · front
1 10082 -180 -96 80 0 0 -1 0 1 0 1 0 0 3001.dat
1 10082 -100 -96 80 0 0 -1 0 1 0 1 0 0 3001.dat
1 10082 -60 -96 80 0 0 -1 0 1 0 1 0 0 3001.dat
1 10082 -20 -96 80 0 0 -1 0 1 0 1 0 0 3001.dat
0 STEP
0 // Build the lower coat · front
1 10082 20 -96 80 0 0 -1 0 1 0 1 0 0 3001.dat
1 10082 60 -96 80 0 0 -1 0 1 0 1 0 0 3001.dat
1 10082 100 -96 80 0 0 -1 0 1 0 1 0 0 3001.dat
1 10082 180 -96 80 0 0 -1 0 1 0 1 0 0 3001.dat
0 STEP
0 // Build the lower coat · front
1 10082 -210 -96 100 0 0 -1 0 1 0 1 0 0 3010.dat
1 10082 210 -96 100 0 0 -1 0 1 0 1 0 0 3010.dat
1 10082 -140 -96 140 0 0 -1 0 1 0 1 0 0 3001.dat
1 10082 140 -96 140 0 0 -1 0 1 0 1 0 0 3001.dat
0 STEP
0 // Build the lower coat · rear
1 10082 -180 -96 140 0 0 -1 0 1 0 1 0 0 3003.dat
1 10082 -100 -96 160 0 0 -1 0 1 0 1 0 0 3001.dat
1 10082 -60 -96 160 0 0 -1 0 1 0 1 0 0 3001.dat
1 10082 -20 -96 160 0 0 -1 0 1 0 1 0 0 3001.dat
0 STEP
0 // Build the lower coat · rear
1 10082 20 -96 160 0 0 -1 0 1 0 1 0 0 3001.dat
1 10082 60 -96 160 0 0 -1 0 1 0 1 0 0 3001.dat
1 10082 100 -96 160 0 0 -1 0 1 0 1 0 0 3001.dat
1 10082 180 -96 140 0 0 -1 0 1 0 1 0 0 3003.dat
0 STEP
0 // Add face and limb attachment bricks
1 10031 -90 -120 -10 1 0 0 0 1 0 0 0 1 87087.dat
1 10031 -70 -120 -10 1 0 0 0 1 0 0 0 1 87087.dat
1 10031 70 -120 -10 1 0 0 0 1 0 0 0 1 87087.dat
1 10031 90 -120 -10 1 0 0 0 1 0 0 0 1 87087.dat
0 STEP
0 // Add left quill attachment studs
1 10082 -210 -120 70 0 0 1 0 1 0 -1 0 0 87087.dat
0 STEP
0 // Add left quill attachment studs
1 10082 -210 -120 110 0 0 1 0 1 0 -1 0 0 87087.dat
0 STEP
0 // Add left quill attachment studs
1 10082 -190 -120 50 0 0 1 0 1 0 -1 0 0 87087.dat
0 STEP
0 // Add back quill attachment studs
1 10082 -170 -120 150 -1 0 0 0 1 0 0 0 -1 87087.dat
1 10082 -150 -120 170 -1 0 0 0 1 0 0 0 -1 87087.dat
1 10082 130 -120 170 -1 0 0 0 1 0 0 0 -1 87087.dat
0 STEP
0 // Add right quill attachment studs
1 10082 150 -120 30 0 0 -1 0 1 0 1 0 0 87087.dat
0 STEP
0 // Add front quill attachment studs
1 10082 170 -120 50 1 0 0 0 1 0 0 0 1 87087.dat
0 STEP
0 // Add back quill attachment studs
1 10082 190 -120 150 -1 0 0 0 1 0 0 0 -1 87087.dat
0 STEP
0 // Add right quill attachment studs
1 10082 210 -120 90 0 0 -1 0 1 0 1 0 0 87087.dat
0 STEP
0 // Add back quill attachment studs
1 10082 210 -120 130 -1 0 0 0 1 0 0 0 -1 87087.dat
0 STEP
0 // Shape the belly · front
1 10031 -110 -120 0 0 0 -1 0 1 0 1 0 0 3004.dat
1 10031 -20 -120 0 1 0 0 0 1 0 0 0 1 3001.dat
1 10031 40 -120 10 0 0 -1 0 1 0 1 0 0 3002.dat
1 10031 110 -120 0 0 0 -1 0 1 0 1 0 0 3004.dat
0 STEP
0 // Shape the belly · front
1 10031 -80 -120 20 1 0 0 0 1 0 0 0 1 3003.dat
1 10031 80 -120 20 1 0 0 0 1 0 0 0 1 3003.dat
1 10082 -140 -120 60 0 0 -1 0 1 0 1 0 0 3001.dat
1 10031 -110 -120 30 1 0 0 0 1 0 0 0 1 3005.dat
0 STEP
0 // Shape the belly · front
1 10031 -20 -120 30 1 0 0 0 1 0 0 0 1 3010.dat
1 10031 110 -120 30 1 0 0 0 1 0 0 0 1 3005.dat
1 10082 130 -120 60 0 0 -1 0 1 0 1 0 0 3010.dat
1 10082 -170 -120 80 0 0 -1 0 1 0 1 0 0 3010.dat
0 STEP
0 // Shape the belly · front
1 10082 -80 -120 60 1 0 0 0 1 0 0 0 1 3001.dat
1 10082 0 -120 60 1 0 0 0 1 0 0 0 1 3001.dat
1 10082 80 -120 60 1 0 0 0 1 0 0 0 1 3001.dat
1 10082 150 -120 80 0 0 -1 0 1 0 1 0 0 3010.dat
0 STEP
0 // Shape the belly · front
1 10082 190 -120 80 0 0 -1 0 1 0 1 0 0 3010.dat
1 10082 -190 -120 100 0 0 -1 0 1 0 1 0 0 3010.dat
1 10082 170 -120 100 0 0 -1 0 1 0 1 0 0 3010.dat
1 10082 210 -120 70 1 0 0 0 1 0 0 0 1 3005.dat
0 STEP
0 // Shape the belly · front
1 10082 -210 -120 90 1 0 0 0 1 0 0 0 1 3005.dat
1 10082 -80 -120 100 1 0 0 0 1 0 0 0 1 3001.dat
1 10082 0 -120 100 1 0 0 0 1 0 0 0 1 3001.dat
1 10082 80 -120 100 1 0 0 0 1 0 0 0 1 3001.dat
0 STEP
0 // Shape the belly · front
1 10082 -140 -120 130 0 0 -1 0 1 0 1 0 0 3002.dat
1 10082 130 -120 120 0 0 -1 0 1 0 1 0 0 3004.dat
1 10082 210 -120 110 1 0 0 0 1 0 0 0 1 3005.dat
0 STEP
0 // Shape the belly · rear
1 10082 -210 -120 130 1 0 0 0 1 0 0 0 1 3005.dat
1 10082 -170 -120 130 1 0 0 0 1 0 0 0 1 3005.dat
1 10082 -80 -120 140 1 0 0 0 1 0 0 0 1 3001.dat
1 10082 0 -120 140 1 0 0 0 1 0 0 0 1 3001.dat
0 STEP
0 // Shape the belly · rear
1 10082 80 -120 140 1 0 0 0 1 0 0 0 1 3001.dat
1 10082 150 -120 140 0 0 -1 0 1 0 1 0 0 3004.dat
1 10082 190 -120 130 1 0 0 0 1 0 0 0 1 3005.dat
1 10082 -190 -120 150 1 0 0 0 1 0 0 0 1 3005.dat
0 STEP
0 // Shape the belly · rear
1 10082 130 -120 150 1 0 0 0 1 0 0 0 1 3005.dat
1 10082 170 -120 150 1 0 0 0 1 0 0 0 1 3005.dat
1 10082 -100 -120 170 1 0 0 0 1 0 0 0 1 3010.dat
1 10082 -20 -120 170 1 0 0 0 1 0 0 0 1 3010.dat
0 STEP
0 // Shape the belly · rear
1 10082 60 -120 170 1 0 0 0 1 0 0 0 1 3010.dat
1 10082 110 -120 170 1 0 0 0 1 0 0 0 1 3005.dat
1 10082 150 -120 170 1 0 0 0 1 0 0 0 1 3005.dat
1 10081 -80 -120 190 1 0 0 0 1 0 0 0 1 3010.dat
0 STEP
0 // Shape the belly · rear
1 10081 0 -120 190 1 0 0 0 1 0 0 0 1 3010.dat
1 10081 80 -120 190 1 0 0 0 1 0 0 0 1 3010.dat
0 STEP
0 // Shape the belly · front
1 10031 -80 -144 0 1 0 0 0 1 0 0 0 1 3001.dat
1 10031 0 -144 0 1 0 0 0 1 0 0 0 1 3001.dat
1 10031 80 -144 0 1 0 0 0 1 0 0 0 1 3001.dat
1 10082 -140 -144 60 0 0 -1 0 1 0 1 0 0 3001.dat
0 STEP
0 // Shape the belly · front
1 10031 -80 -144 30 1 0 0 0 1 0 0 0 1 3010.dat
1 10031 0 -144 30 1 0 0 0 1 0 0 0 1 3010.dat
1 10031 80 -144 30 1 0 0 0 1 0 0 0 1 3010.dat
1 10082 140 -144 60 0 0 -1 0 1 0 1 0 0 3001.dat
0 STEP
0 // Shape the belly · front
1 10082 -180 -144 80 0 0 -1 0 1 0 1 0 0 3001.dat
1 10082 -100 -144 80 0 0 -1 0 1 0 1 0 0 3001.dat
1 10082 -60 -144 80 0 0 -1 0 1 0 1 0 0 3001.dat
1 10082 -20 -144 80 0 0 -1 0 1 0 1 0 0 3001.dat
0 STEP
0 // Shape the belly · front
1 10082 20 -144 80 0 0 -1 0 1 0 1 0 0 3001.dat
1 10082 60 -144 80 0 0 -1 0 1 0 1 0 0 3001.dat
1 10082 100 -144 80 0 0 -1 0 1 0 1 0 0 3001.dat
1 10082 180 -144 80 0 0 -1 0 1 0 1 0 0 3001.dat
0 STEP
0 // Shape the belly · front
1 10082 -210 -144 100 0 0 -1 0 1 0 1 0 0 3010.dat
1 10082 210 -144 100 0 0 -1 0 1 0 1 0 0 3010.dat
1 10082 -140 -144 140 0 0 -1 0 1 0 1 0 0 3001.dat
1 10082 140 -144 140 0 0 -1 0 1 0 1 0 0 3001.dat
0 STEP
0 // Shape the belly · rear
1 10082 -180 -144 140 0 0 -1 0 1 0 1 0 0 3003.dat
1 10082 -100 -144 160 0 0 -1 0 1 0 1 0 0 3001.dat
1 10082 -60 -144 160 0 0 -1 0 1 0 1 0 0 3001.dat
1 10082 -20 -144 160 0 0 -1 0 1 0 1 0 0 3001.dat
0 STEP
0 // Shape the belly · rear
1 10082 20 -144 160 0 0 -1 0 1 0 1 0 0 3001.dat
1 10082 60 -144 160 0 0 -1 0 1 0 1 0 0 3001.dat
1 10082 100 -144 160 0 0 -1 0 1 0 1 0 0 3001.dat
1 10082 180 -144 140 0 0 -1 0 1 0 1 0 0 3003.dat
0 STEP
0 // Add left quill attachment studs
1 10082 -210 -168 70 0 0 1 0 1 0 -1 0 0 87087.dat
0 STEP
0 // Add left quill attachment studs
1 10082 -210 -168 110 0 0 1 0 1 0 -1 0 0 87087.dat
0 STEP
0 // Add left quill attachment studs
1 10082 -190 -168 50 0 0 1 0 1 0 -1 0 0 87087.dat
0 STEP
0 // Add back quill attachment studs
1 10082 -170 -168 150 -1 0 0 0 1 0 0 0 -1 87087.dat
1 10082 -150 -168 170 -1 0 0 0 1 0 0 0 -1 87087.dat
1 10082 -90 -168 190 -1 0 0 0 1 0 0 0 -1 87087.dat
1 10082 -50 -168 190 -1 0 0 0 1 0 0 0 -1 87087.dat
0 STEP
0 // Add back quill attachment studs
1 10082 -10 -168 190 -1 0 0 0 1 0 0 0 -1 87087.dat
1 10082 30 -168 190 -1 0 0 0 1 0 0 0 -1 87087.dat
1 10082 70 -168 190 -1 0 0 0 1 0 0 0 -1 87087.dat
1 10082 110 -168 190 -1 0 0 0 1 0 0 0 -1 87087.dat
0 STEP
0 // Add back quill attachment studs
1 10082 130 -168 170 -1 0 0 0 1 0 0 0 -1 87087.dat
0 STEP
0 // Add right quill attachment studs
1 10082 150 -168 30 0 0 -1 0 1 0 1 0 0 87087.dat
0 STEP
0 // Add front quill attachment studs
1 10082 170 -168 50 1 0 0 0 1 0 0 0 1 87087.dat
0 STEP
0 // Add back quill attachment studs
1 10082 190 -168 150 -1 0 0 0 1 0 0 0 -1 87087.dat
0 STEP
0 // Add right quill attachment studs
1 10082 210 -168 90 0 0 -1 0 1 0 1 0 0 87087.dat
0 STEP
0 // Add back quill attachment studs
1 10082 210 -168 130 -1 0 0 0 1 0 0 0 -1 87087.dat
0 STEP
0 // Shape the belly · front
1 10031 -80 -168 0 1 0 0 0 1 0 0 0 1 3001.dat
1 10031 0 -168 0 1 0 0 0 1 0 0 0 1 3001.dat
1 10031 80 -168 0 1 0 0 0 1 0 0 0 1 3001.dat
1 10082 -140 -168 60 0 0 -1 0 1 0 1 0 0 3001.dat
0 STEP
0 // Shape the belly · front
1 10031 -80 -168 30 1 0 0 0 1 0 0 0 1 3010.dat
1 10031 0 -168 30 1 0 0 0 1 0 0 0 1 3010.dat
1 10031 80 -168 30 1 0 0 0 1 0 0 0 1 3010.dat
1 10082 130 -168 60 0 0 -1 0 1 0 1 0 0 3010.dat
0 STEP
0 // Shape the belly · front
1 10082 -170 -168 80 0 0 -1 0 1 0 1 0 0 3010.dat
1 10082 -80 -168 60 1 0 0 0 1 0 0 0 1 3001.dat
1 10082 0 -168 60 1 0 0 0 1 0 0 0 1 3001.dat
1 10082 80 -168 60 1 0 0 0 1 0 0 0 1 3001.dat
0 STEP
0 // Shape the belly · front
1 10082 150 -168 80 0 0 -1 0 1 0 1 0 0 3010.dat
1 10082 190 -168 80 0 0 -1 0 1 0 1 0 0 3010.dat
1 10082 -190 -168 100 0 0 -1 0 1 0 1 0 0 3010.dat
1 10082 170 -168 100 0 0 -1 0 1 0 1 0 0 3010.dat
0 STEP
0 // Shape the belly · front
1 10082 210 -168 70 1 0 0 0 1 0 0 0 1 3005.dat
1 10082 -210 -168 90 1 0 0 0 1 0 0 0 1 3005.dat
1 10082 -80 -168 100 1 0 0 0 1 0 0 0 1 3001.dat
1 10082 0 -168 100 1 0 0 0 1 0 0 0 1 3001.dat
0 STEP
0 // Shape the belly · front
1 10082 80 -168 100 1 0 0 0 1 0 0 0 1 3001.dat
1 10082 -140 -168 130 0 0 -1 0 1 0 1 0 0 3002.dat
1 10082 130 -168 120 0 0 -1 0 1 0 1 0 0 3004.dat
1 10082 210 -168 110 1 0 0 0 1 0 0 0 1 3005.dat
0 STEP
0 // Shape the belly · rear
1 10082 -210 -168 130 1 0 0 0 1 0 0 0 1 3005.dat
1 10082 -170 -168 130 1 0 0 0 1 0 0 0 1 3005.dat
1 10082 -80 -168 140 1 0 0 0 1 0 0 0 1 3001.dat
1 10082 0 -168 140 1 0 0 0 1 0 0 0 1 3001.dat
0 STEP
0 // Shape the belly · rear
1 10082 80 -168 140 1 0 0 0 1 0 0 0 1 3001.dat
1 10082 150 -168 140 0 0 -1 0 1 0 1 0 0 3004.dat
1 10082 190 -168 130 1 0 0 0 1 0 0 0 1 3005.dat
1 10082 -190 -168 150 1 0 0 0 1 0 0 0 1 3005.dat
0 STEP
0 // Shape the belly · rear
1 10082 130 -168 150 1 0 0 0 1 0 0 0 1 3005.dat
1 10082 170 -168 150 1 0 0 0 1 0 0 0 1 3005.dat
1 10082 -100 -168 170 1 0 0 0 1 0 0 0 1 3010.dat
1 10082 -20 -168 170 1 0 0 0 1 0 0 0 1 3010.dat
0 STEP
0 // Shape the belly · rear
1 10082 60 -168 170 1 0 0 0 1 0 0 0 1 3010.dat
1 10082 110 -168 170 1 0 0 0 1 0 0 0 1 3005.dat
1 10082 150 -168 170 1 0 0 0 1 0 0 0 1 3005.dat
1 10082 -110 -168 190 1 0 0 0 1 0 0 0 1 3005.dat
0 STEP
0 // Shape the belly · rear
1 10082 -70 -168 190 1 0 0 0 1 0 0 0 1 3005.dat
1 10082 -30 -168 190 1 0 0 0 1 0 0 0 1 3005.dat
1 10082 10 -168 190 1 0 0 0 1 0 0 0 1 3005.dat
1 10082 50 -168 190 1 0 0 0 1 0 0 0 1 3005.dat
0 STEP
0 // Shape the belly · rear
1 10082 90 -168 190 1 0 0 0 1 0 0 0 1 3005.dat
0 STEP
0 // Shape the belly · front
1 10031 -80 -192 0 1 0 0 0 1 0 0 0 1 3001.dat
1 10031 0 -192 0 1 0 0 0 1 0 0 0 1 3001.dat
1 10031 80 -192 0 1 0 0 0 1 0 0 0 1 3001.dat
1 10082 -140 -192 60 0 0 -1 0 1 0 1 0 0 3001.dat
0 STEP
0 // Shape the belly · front
1 10031 -80 -192 30 1 0 0 0 1 0 0 0 1 3010.dat
1 10031 0 -192 30 1 0 0 0 1 0 0 0 1 3010.dat
1 10031 80 -192 30 1 0 0 0 1 0 0 0 1 3010.dat
1 10082 140 -192 60 0 0 -1 0 1 0 1 0 0 3001.dat
0 STEP
0 // Shape the belly · front
1 10082 -180 -192 80 0 0 -1 0 1 0 1 0 0 3001.dat
1 10082 -100 -192 80 0 0 -1 0 1 0 1 0 0 3001.dat
1 10082 -60 -192 80 0 0 -1 0 1 0 1 0 0 3001.dat
1 10082 -20 -192 80 0 0 -1 0 1 0 1 0 0 3001.dat
0 STEP
0 // Shape the belly · front
1 10082 20 -192 80 0 0 -1 0 1 0 1 0 0 3001.dat
1 10082 60 -192 80 0 0 -1 0 1 0 1 0 0 3001.dat
1 10082 100 -192 80 0 0 -1 0 1 0 1 0 0 3001.dat
1 10082 180 -192 80 0 0 -1 0 1 0 1 0 0 3001.dat
0 STEP
0 // Shape the belly · front
1 10082 -210 -192 100 0 0 -1 0 1 0 1 0 0 3010.dat
1 10082 210 -192 100 0 0 -1 0 1 0 1 0 0 3010.dat
1 10082 -140 -192 140 0 0 -1 0 1 0 1 0 0 3001.dat
1 10082 140 -192 140 0 0 -1 0 1 0 1 0 0 3001.dat
0 STEP
0 // Shape the belly · rear
1 10082 -180 -192 140 0 0 -1 0 1 0 1 0 0 3003.dat
1 10082 -100 -192 160 0 0 -1 0 1 0 1 0 0 3001.dat
1 10082 -60 -192 160 0 0 -1 0 1 0 1 0 0 3001.dat
1 10082 -20 -192 160 0 0 -1 0 1 0 1 0 0 3001.dat
0 STEP
0 // Shape the belly · rear
1 10082 20 -192 160 0 0 -1 0 1 0 1 0 0 3001.dat
1 10082 60 -192 160 0 0 -1 0 1 0 1 0 0 3001.dat
1 10082 100 -192 160 0 0 -1 0 1 0 1 0 0 3001.dat
1 10082 180 -192 140 0 0 -1 0 1 0 1 0 0 3003.dat
0 STEP
0 // Add quill tips
1 10082 190 -192 50 0 0 1 0 1 0 -1 0 0 54200.dat
1 10082 210 -192 70 0 0 1 0 1 0 -1 0 0 54200.dat
1 10082 -210 -192 90 0 0 -1 0 1 0 1 0 0 54200.dat
1 10082 210 -192 110 0 0 1 0 1 0 -1 0 0 54200.dat
0 STEP
0 // Add quill tips
1 10082 -210 -192 130 0 0 -1 0 1 0 1 0 0 54200.dat
1 10082 -190 -192 150 0 0 -1 0 1 0 1 0 0 54200.dat
1 10082 -110 -192 190 0 0 -1 0 1 0 1 0 0 54200.dat
0 STEP
0 // Add left quill attachment studs
1 10082 -190 -216 90 0 0 1 0 1 0 -1 0 0 87087.dat
0 STEP
0 // Add back quill attachment studs
1 10082 -190 -216 130 -1 0 0 0 1 0 0 0 -1 87087.dat
1 10082 -170 -216 150 -1 0 0 0 1 0 0 0 -1 87087.dat
1 10082 -150 -216 170 -1 0 0 0 1 0 0 0 -1 87087.dat
1 10082 -110 -216 170 -1 0 0 0 1 0 0 0 -1 87087.dat
0 STEP
0 // Add back quill attachment studs
1 10082 130 -216 170 -1 0 0 0 1 0 0 0 -1 87087.dat
0 STEP
0 // Add right quill attachment studs
1 10082 150 -216 30 0 0 -1 0 1 0 1 0 0 87087.dat
1 10082 170 -216 50 0 0 -1 0 1 0 1 0 0 87087.dat
1 10082 190 -216 70 0 0 -1 0 1 0 1 0 0 87087.dat
0 STEP
0 // Add right quill attachment studs
1 10082 190 -216 110 0 0 -1 0 1 0 1 0 0 87087.dat
0 STEP
0 // Round the shoulders · front
1 10031 -80 -216 0 1 0 0 0 1 0 0 0 1 3001.dat
1 10031 0 -216 0 1 0 0 0 1 0 0 0 1 3001.dat
1 10031 80 -216 0 1 0 0 0 1 0 0 0 1 3001.dat
1 10082 -140 -216 60 0 0 -1 0 1 0 1 0 0 3001.dat
0 STEP
0 // Round the shoulders · front
1 10031 -80 -216 30 1 0 0 0 1 0 0 0 1 3010.dat
1 10031 0 -216 30 1 0 0 0 1 0 0 0 1 3010.dat
1 10031 80 -216 30 1 0 0 0 1 0 0 0 1 3010.dat
1 10082 130 -216 60 0 0 -1 0 1 0 1 0 0 3010.dat
0 STEP
0 // Round the shoulders · front
1 10082 -170 -216 80 0 0 -1 0 1 0 1 0 0 3010.dat
1 10082 -80 -216 60 1 0 0 0 1 0 0 0 1 3001.dat
1 10082 0 -216 60 1 0 0 0 1 0 0 0 1 3001.dat
1 10082 80 -216 60 1 0 0 0 1 0 0 0 1 3001.dat
0 STEP
0 // Round the shoulders · front
1 10082 150 -216 80 0 0 -1 0 1 0 1 0 0 3010.dat
1 10082 -190 -216 70 1 0 0 0 1 0 0 0 1 3005.dat
1 10082 170 -216 100 0 0 -1 0 1 0 1 0 0 3010.dat
1 10082 -80 -216 100 1 0 0 0 1 0 0 0 1 3001.dat
0 STEP
0 // Round the shoulders · front
1 10082 0 -216 100 1 0 0 0 1 0 0 0 1 3001.dat
1 10082 80 -216 100 1 0 0 0 1 0 0 0 1 3001.dat
1 10082 190 -216 90 1 0 0 0 1 0 0 0 1 3005.dat
1 10082 -190 -216 110 1 0 0 0 1 0 0 0 1 3005.dat
0 STEP
0 // Round the shoulders · front
1 10082 -140 -216 130 0 0 -1 0 1 0 1 0 0 3002.dat
1 10082 130 -216 120 0 0 -1 0 1 0 1 0 0 3004.dat
0 STEP
0 // Round the shoulders · rear
1 10082 -170 -216 130 1 0 0 0 1 0 0 0 1 3005.dat
1 10082 -80 -216 140 1 0 0 0 1 0 0 0 1 3001.dat
1 10082 0 -216 140 1 0 0 0 1 0 0 0 1 3001.dat
1 10082 80 -216 140 1 0 0 0 1 0 0 0 1 3001.dat
0 STEP
0 // Round the shoulders · rear
1 10082 150 -216 140 0 0 -1 0 1 0 1 0 0 3004.dat
1 10082 190 -216 130 1 0 0 0 1 0 0 0 1 3005.dat
1 10082 130 -216 150 1 0 0 0 1 0 0 0 1 3005.dat
1 10082 170 -216 150 1 0 0 0 1 0 0 0 1 3005.dat
0 STEP
0 // Round the shoulders · rear
1 10082 -130 -216 170 1 0 0 0 1 0 0 0 1 3005.dat
1 10082 -60 -216 170 1 0 0 0 1 0 0 0 1 3010.dat
1 10082 20 -216 170 1 0 0 0 1 0 0 0 1 3010.dat
1 10082 80 -216 170 1 0 0 0 1 0 0 0 1 3004.dat
0 STEP
0 // Round the shoulders · rear
1 10082 110 -216 170 1 0 0 0 1 0 0 0 1 3005.dat
1 10082 150 -216 170 1 0 0 0 1 0 0 0 1 3005.dat
1 10081 -60 -216 190 1 0 0 0 1 0 0 0 1 3010.dat
1 10081 20 -216 190 1 0 0 0 1 0 0 0 1 3010.dat
0 STEP
0 // Round the shoulders · rear
1 10081 80 -216 190 1 0 0 0 1 0 0 0 1 3004.dat
0 STEP
0 // Round the shoulders · front
1 10031 -60 -240 20 1 0 0 0 1 0 0 0 1 3001.dat
1 10031 20 -240 20 1 0 0 0 1 0 0 0 1 3001.dat
1 10031 80 -240 20 0 0 -1 0 1 0 1 0 0 3003.dat
1 10082 -140 -240 60 0 0 -1 0 1 0 1 0 0 3001.dat
0 STEP
0 // Round the shoulders · front
1 10082 -110 -240 60 0 0 -1 0 1 0 1 0 0 3010.dat
1 10082 120 -240 60 0 0 -1 0 1 0 1 0 0 3001.dat
1 10082 150 -240 60 0 0 -1 0 1 0 1 0 0 3010.dat
1 10082 -170 -240 80 0 0 -1 0 1 0 1 0 0 3010.dat
0 STEP
0 // Round the shoulders · front
1 10082 -80 -240 80 0 0 -1 0 1 0 1 0 0 3001.dat
1 10082 -40 -240 80 0 0 -1 0 1 0 1 0 0 3001.dat
1 10082 0 -240 80 0 0 -1 0 1 0 1 0 0 3001.dat
1 10082 40 -240 80 0 0 -1 0 1 0 1 0 0 3001.dat
0 STEP
0 // Round the shoulders · front
1 10082 80 -240 80 0 0 -1 0 1 0 1 0 0 3001.dat
1 10082 170 -240 80 0 0 -1 0 1 0 1 0 0 3010.dat
1 10082 -190 -240 100 0 0 -1 0 1 0 1 0 0 3010.dat
1 10082 190 -240 100 0 0 -1 0 1 0 1 0 0 3010.dat
0 STEP
0 // Round the shoulders · front
1 10082 -140 -240 140 0 0 -1 0 1 0 1 0 0 3001.dat
1 10082 -110 -240 140 0 0 -1 0 1 0 1 0 0 3010.dat
1 10082 120 -240 140 0 0 -1 0 1 0 1 0 0 3001.dat
1 10082 150 -240 140 0 0 -1 0 1 0 1 0 0 3010.dat
0 STEP
0 // Round the shoulders · rear
1 10082 -170 -240 140 0 0 -1 0 1 0 1 0 0 3004.dat
1 10082 -80 -240 160 0 0 -1 0 1 0 1 0 0 3001.dat
1 10082 -40 -240 160 0 0 -1 0 1 0 1 0 0 3001.dat
1 10082 0 -240 160 0 0 -1 0 1 0 1 0 0 3001.dat
0 STEP
0 // Round the shoulders · rear
1 10082 40 -240 160 0 0 -1 0 1 0 1 0 0 3001.dat
1 10082 80 -240 160 0 0 -1 0 1 0 1 0 0 3001.dat
1 10082 170 -240 140 0 0 -1 0 1 0 1 0 0 3004.dat
0 STEP
0 // Add left quill attachment studs
1 10082 -190 -264 90 0 0 1 0 1 0 -1 0 0 87087.dat
0 STEP
0 // Add back quill attachment studs
1 10082 -190 -264 130 -1 0 0 0 1 0 0 0 -1 87087.dat
1 10082 -170 -264 150 -1 0 0 0 1 0 0 0 -1 87087.dat
1 10082 -150 -264 170 -1 0 0 0 1 0 0 0 -1 87087.dat
1 10082 -110 -264 170 -1 0 0 0 1 0 0 0 -1 87087.dat
0 STEP
0 // Add back quill attachment studs
1 10082 -90 -264 190 -1 0 0 0 1 0 0 0 -1 87087.dat
1 10082 -50 -264 190 -1 0 0 0 1 0 0 0 -1 87087.dat
1 10082 -10 -264 190 -1 0 0 0 1 0 0 0 -1 87087.dat
1 10082 30 -264 190 -1 0 0 0 1 0 0 0 -1 87087.dat
0 STEP
0 // Add back quill attachment studs
1 10082 70 -264 190 -1 0 0 0 1 0 0 0 -1 87087.dat
1 10082 130 -264 170 -1 0 0 0 1 0 0 0 -1 87087.dat
0 STEP
0 // Add right quill attachment studs
1 10082 150 -264 30 0 0 -1 0 1 0 1 0 0 87087.dat
1 10082 170 -264 50 0 0 -1 0 1 0 1 0 0 87087.dat
1 10082 190 -264 70 0 0 -1 0 1 0 1 0 0 87087.dat
0 STEP
0 // Add right quill attachment studs
1 10082 190 -264 110 0 0 -1 0 1 0 1 0 0 87087.dat
0 STEP
0 // Round the shoulders · front
1 10031 -60 -264 20 1 0 0 0 1 0 0 0 1 3001.dat
1 10031 20 -264 20 1 0 0 0 1 0 0 0 1 3001.dat
1 10031 80 -264 20 1 0 0 0 1 0 0 0 1 3003.dat
1 10082 -140 -264 60 0 0 -1 0 1 0 1 0 0 3001.dat
0 STEP
0 // Round the shoulders · front
1 10082 -110 -264 60 0 0 -1 0 1 0 1 0 0 3010.dat
1 10082 120 -264 60 0 0 -1 0 1 0 1 0 0 3001.dat
1 10082 -170 -264 80 0 0 -1 0 1 0 1 0 0 3010.dat
1 10082 -60 -264 60 1 0 0 0 1 0 0 0 1 3001.dat
0 STEP
0 // Round the shoulders · front
1 10082 20 -264 60 1 0 0 0 1 0 0 0 1 3001.dat
1 10082 80 -264 80 0 0 -1 0 1 0 1 0 0 3001.dat
1 10082 150 -264 80 0 0 -1 0 1 0 1 0 0 3010.dat
1 10082 -190 -264 70 1 0 0 0 1 0 0 0 1 3005.dat
0 STEP
0 // Round the shoulders · front
1 10082 170 -264 100 0 0 -1 0 1 0 1 0 0 3010.dat
1 10082 -60 -264 100 1 0 0 0 1 0 0 0 1 3001.dat
1 10082 20 -264 100 1 0 0 0 1 0 0 0 1 3001.dat
1 10082 190 -264 90 1 0 0 0 1 0 0 0 1 3005.dat
0 STEP
0 // Round the shoulders · front
1 10082 -190 -264 110 1 0 0 0 1 0 0 0 1 3005.dat
1 10082 -130 -264 120 1 0 0 0 1 0 0 0 1 3002.dat
1 10082 120 -264 130 0 0 -1 0 1 0 1 0 0 3002.dat
0 STEP
0 // Round the shoulders · rear
1 10082 -170 -264 130 1 0 0 0 1 0 0 0 1 3005.dat
1 10082 -60 -264 140 1 0 0 0 1 0 0 0 1 3001.dat
1 10082 20 -264 140 1 0 0 0 1 0 0 0 1 3001.dat
1 10082 80 -264 150 0 0 -1 0 1 0 1 0 0 3002.dat
0 STEP
0 // Round the shoulders · rear
1 10082 150 -264 140 0 0 -1 0 1 0 1 0 0 3004.dat
1 10082 190 -264 130 1 0 0 0 1 0 0 0 1 3005.dat
1 10082 -140 -264 150 1 0 0 0 1 0 0 0 1 3004.dat
1 10082 -110 -264 150 1 0 0 0 1 0 0 0 1 3005.dat
0 STEP
0 // Round the shoulders · rear
1 10082 170 -264 150 1 0 0 0 1 0 0 0 1 3005.dat
1 10082 -130 -264 170 1 0 0 0 1 0 0 0 1 3005.dat
1 10082 -60 -264 170 1 0 0 0 1 0 0 0 1 3010.dat
1 10082 20 -264 170 1 0 0 0 1 0 0 0 1 3010.dat
0 STEP
0 // Round the shoulders · rear
1 10082 110 -264 170 1 0 0 0 1 0 0 0 1 3005.dat
1 10082 150 -264 170 1 0 0 0 1 0 0 0 1 3005.dat
1 10082 -70 -264 190 1 0 0 0 1 0 0 0 1 3005.dat
1 10082 -30 -264 190 1 0 0 0 1 0 0 0 1 3005.dat
0 STEP
0 // Round the shoulders · rear
1 10082 10 -264 190 1 0 0 0 1 0 0 0 1 3005.dat
1 10082 50 -264 190 1 0 0 0 1 0 0 0 1 3005.dat
1 10082 90 -264 190 1 0 0 0 1 0 0 0 1 3005.dat
0 STEP
0 // Add quill tips
1 10082 170 -264 50 0 0 1 0 1 0 -1 0 0 54200.dat
1 10081 190 -264 70 0 0 1 0 1 0 -1 0 0 54200.dat
1 10082 -190 -264 90 0 0 -1 0 1 0 1 0 0 54200.dat
1 10082 190 -264 110 0 0 1 0 1 0 -1 0 0 54200.dat
0 STEP
0 // Add quill tips
1 10081 -190 -264 130 0 0 -1 0 1 0 1 0 0 54200.dat
1 10082 -170 -264 150 0 0 -1 0 1 0 1 0 0 54200.dat
1 10081 -150 -264 170 0 0 -1 0 1 0 1 0 0 54200.dat
0 STEP
0 // Round the shoulders · front
1 10031 -60 -288 0 1 0 0 0 1 0 0 0 1 3001.dat
1 10031 20 -288 0 1 0 0 0 1 0 0 0 1 3001.dat
1 10031 80 -288 10 0 0 -1 0 1 0 1 0 0 3002.dat
1 10082 -120 -288 60 0 0 -1 0 1 0 1 0 0 3001.dat
0 STEP
0 // Round the shoulders · front
1 10031 -60 -288 30 1 0 0 0 1 0 0 0 1 3010.dat
1 10031 20 -288 30 1 0 0 0 1 0 0 0 1 3010.dat
1 10082 120 -288 60 0 0 -1 0 1 0 1 0 0 3001.dat
1 10082 -150 -288 80 0 0 -1 0 1 0 1 0 0 3010.dat
0 STEP
0 // Round the shoulders · front
1 10082 -80 -288 80 0 0 -1 0 1 0 1 0 0 3001.dat
1 10082 -40 -288 80 0 0 -1 0 1 0 1 0 0 3001.dat
1 10082 0 -288 80 0 0 -1 0 1 0 1 0 0 3001.dat
1 10082 40 -288 80 0 0 -1 0 1 0 1 0 0 3001.dat
0 STEP
0 // Round the shoulders · front
1 10082 80 -288 80 0 0 -1 0 1 0 1 0 0 3001.dat
1 10082 150 -288 80 0 0 -1 0 1 0 1 0 0 3010.dat
1 10082 -170 -288 100 0 0 -1 0 1 0 1 0 0 3010.dat
1 10082 170 -288 100 0 0 -1 0 1 0 1 0 0 3010.dat
0 STEP
0 // Round the shoulders · front
1 10082 -120 -288 140 0 0 -1 0 1 0 1 0 0 3001.dat
1 10082 120 -288 140 0 0 -1 0 1 0 1 0 0 3001.dat
0 STEP
0 // Round the shoulders · rear
1 10082 -150 -288 140 0 0 -1 0 1 0 1 0 0 3004.dat
1 10082 -80 -288 160 0 0 -1 0 1 0 1 0 0 3001.dat
1 10082 -40 -288 160 0 0 -1 0 1 0 1 0 0 3001.dat
1 10082 0 -288 160 0 0 -1 0 1 0 1 0 0 3001.dat
0 STEP
0 // Round the shoulders · rear
1 10082 40 -288 160 0 0 -1 0 1 0 1 0 0 3001.dat
1 10082 80 -288 160 0 0 -1 0 1 0 1 0 0 3001.dat
1 10082 150 -288 140 0 0 -1 0 1 0 1 0 0 3004.dat
0 STEP
0 // Add face and limb attachment bricks
1 10031 -50 -312 -10 1 0 0 0 1 0 0 0 1 87087.dat
1 10031 -30 -312 -10 1 0 0 0 1 0 0 0 1 87087.dat
1 10031 -10 -312 -10 1 0 0 0 1 0 0 0 1 87087.dat
1 10031 10 -312 -10 1 0 0 0 1 0 0 0 1 87087.dat
0 STEP
0 // Add face and limb attachment bricks
1 10031 30 -312 -10 1 0 0 0 1 0 0 0 1 87087.dat
1 10031 50 -312 -10 1 0 0 0 1 0 0 0 1 87087.dat
0 STEP
0 // Add left quill attachment studs
1 10082 -170 -312 70 0 0 1 0 1 0 -1 0 0 87087.dat
0 STEP
0 // Add left quill attachment studs
1 10082 -170 -312 110 0 0 1 0 1 0 -1 0 0 87087.dat
0 STEP
0 // Add left quill attachment studs
1 10082 -150 -312 50 0 0 1 0 1 0 -1 0 0 87087.dat
1 10082 -130 -312 30 0 0 1 0 1 0 -1 0 0 87087.dat
0 STEP
0 // Add back quill attachment studs
1 10082 -110 -312 170 -1 0 0 0 1 0 0 0 -1 87087.dat
1 10082 130 -312 170 -1 0 0 0 1 0 0 0 -1 87087.dat
1 10082 150 -312 150 -1 0 0 0 1 0 0 0 -1 87087.dat
0 STEP
0 // Add right quill attachment studs
1 10082 170 -312 90 0 0 -1 0 1 0 1 0 0 87087.dat
0 STEP
0 // Add back quill attachment studs
1 10082 170 -312 130 -1 0 0 0 1 0 0 0 -1 87087.dat
0 STEP
0 // Build the head · front
1 10031 -80 -312 10 0 0 -1 0 1 0 1 0 0 3002.dat
1 10031 80 -312 10 0 0 -1 0 1 0 1 0 0 3002.dat
1 10031 -20 -312 20 1 0 0 0 1 0 0 0 1 3001.dat
1 10031 40 -312 20 1 0 0 0 1 0 0 0 1 3003.dat
0 STEP
0 // Build the head · front
1 10082 -110 -312 60 0 0 -1 0 1 0 1 0 0 3010.dat
1 10082 120 -312 60 0 0 -1 0 1 0 1 0 0 3001.dat
1 10082 -130 -312 80 0 0 -1 0 1 0 1 0 0 3010.dat
1 10082 -60 -312 60 1 0 0 0 1 0 0 0 1 3001.dat
0 STEP
0 // Build the head · front
1 10082 20 -312 60 1 0 0 0 1 0 0 0 1 3001.dat
1 10082 80 -312 80 0 0 -1 0 1 0 1 0 0 3001.dat
1 10082 150 -312 80 0 0 -1 0 1 0 1 0 0 3010.dat
1 10082 -150 -312 100 0 0 -1 0 1 0 1 0 0 3010.dat
0 STEP
0 // Build the head · front
1 10082 170 -312 70 1 0 0 0 1 0 0 0 1 3005.dat
1 10082 -170 -312 90 1 0 0 0 1 0 0 0 1 3005.dat
1 10082 -60 -312 100 1 0 0 0 1 0 0 0 1 3001.dat
1 10082 20 -312 100 1 0 0 0 1 0 0 0 1 3001.dat
0 STEP
0 // Build the head · front
1 10082 -110 -312 120 0 0 -1 0 1 0 1 0 0 3004.dat
1 10082 120 -312 130 0 0 -1 0 1 0 1 0 0 3002.dat
1 10082 170 -312 110 1 0 0 0 1 0 0 0 1 3005.dat
0 STEP
0 // Build the head · rear
1 10082 -170 -312 130 1 0 0 0 1 0 0 0 1 3005.dat
1 10082 -130 -312 140 0 0 -1 0 1 0 1 0 0 3004.dat
1 10082 -60 -312 140 1 0 0 0 1 0 0 0 1 3001.dat
1 10082 20 -312 140 1 0 0 0 1 0 0 0 1 3001.dat
0 STEP
0 // Build the head · rear
1 10082 80 -312 150 0 0 -1 0 1 0 1 0 0 3002.dat
1 10082 150 -312 130 1 0 0 0 1 0 0 0 1 3005.dat
1 10082 -150 -312 150 1 0 0 0 1 0 0 0 1 3005.dat
1 10082 -110 -312 150 1 0 0 0 1 0 0 0 1 3005.dat
0 STEP
0 // Build the head · rear
1 10082 -130 -312 170 1 0 0 0 1 0 0 0 1 3005.dat
1 10082 -60 -312 170 1 0 0 0 1 0 0 0 1 3010.dat
1 10082 20 -312 170 1 0 0 0 1 0 0 0 1 3010.dat
1 10082 110 -312 170 1 0 0 0 1 0 0 0 1 3005.dat
0 STEP
0 // Build the head · rear
1 10081 -60 -312 190 1 0 0 0 1 0 0 0 1 3010.dat
1 10081 20 -312 190 1 0 0 0 1 0 0 0 1 3010.dat
1 10081 80 -312 190 1 0 0 0 1 0 0 0 1 3004.dat
0 STEP
0 // Add quill tips
1 10082 -150 -312 50 0 0 -1 0 1 0 1 0 0 54200.dat
1 10082 150 -312 150 0 0 1 0 1 0 -1 0 0 54200.dat
1 10082 -110 -312 170 0 0 -1 0 1 0 1 0 0 54200.dat
1 10082 130 -312 170 0 0 1 0 1 0 -1 0 0 54200.dat
0 STEP
0 // Add quill tips
1 10081 -90 -312 190 -1 0 0 0 1 0 0 0 -1 54200.dat
1 10082 -50 -312 190 -1 0 0 0 1 0 0 0 -1 54200.dat
1 10081 -10 -312 190 -1 0 0 0 1 0 0 0 -1 54200.dat
1 10082 30 -312 190 -1 0 0 0 1 0 0 0 -1 54200.dat
0 STEP
0 // Add quill tips
1 10081 70 -312 190 -1 0 0 0 1 0 0 0 -1 54200.dat
0 STEP
0 // Build the head · front
1 10031 -60 -336 0 1 0 0 0 1 0 0 0 1 3001.dat
1 10031 20 -336 0 1 0 0 0 1 0 0 0 1 3001.dat
1 10031 80 -336 10 0 0 -1 0 1 0 1 0 0 3002.dat
1 10031 -60 -336 30 1 0 0 0 1 0 0 0 1 3010.dat
0 STEP
0 // Build the head · front
1 10031 20 -336 30 1 0 0 0 1 0 0 0 1 3010.dat
1 10082 -120 -336 80 0 0 -1 0 1 0 1 0 0 3001.dat
1 10082 -80 -336 80 0 0 -1 0 1 0 1 0 0 3001.dat
1 10082 -40 -336 80 0 0 -1 0 1 0 1 0 0 3001.dat
0 STEP
0 // Build the head · front
1 10082 0 -336 80 0 0 -1 0 1 0 1 0 0 3001.dat
1 10082 40 -336 80 0 0 -1 0 1 0 1 0 0 3001.dat
1 10082 80 -336 80 0 0 -1 0 1 0 1 0 0 3001.dat
1 10082 120 -336 80 0 0 -1 0 1 0 1 0 0 3001.dat
0 STEP
0 // Build the head · front
1 10082 -160 -336 100 0 0 -1 0 1 0 1 0 0 3001.dat
1 10082 160 -336 100 0 0 -1 0 1 0 1 0 0 3001.dat
0 STEP
0 // Build the head · rear
1 10082 -100 -336 140 1 0 0 0 1 0 0 0 1 3001.dat
1 10082 -20 -336 140 1 0 0 0 1 0 0 0 1 3001.dat
1 10082 60 -336 140 1 0 0 0 1 0 0 0 1 3001.dat
1 10082 120 -336 140 0 0 -1 0 1 0 1 0 0 3003.dat
0 STEP
0 // Build the head · rear
1 10082 -60 -336 170 1 0 0 0 1 0 0 0 1 3010.dat
1 10082 20 -336 170 1 0 0 0 1 0 0 0 1 3010.dat
1 10082 80 -336 170 1 0 0 0 1 0 0 0 1 3004.dat
0 STEP
0 // Add quill tips
1 10082 170 -336 70 0 0 1 0 1 0 -1 0 0 54200.dat
1 10082 -170 -336 90 0 0 -1 0 1 0 1 0 0 54200.dat
1 10082 170 -336 110 0 0 1 0 1 0 -1 0 0 54200.dat
1 10082 -170 -336 130 0 0 -1 0 1 0 1 0 0 54200.dat
0 STEP
0 // Add quill tips
1 10082 -90 -336 170 -1 0 0 0 1 0 0 0 -1 54200.dat
0 STEP
0 // Add face and limb attachment bricks
1 10031 -50 -360 -10 1 0 0 0 1 0 0 0 1 87087.dat
1 10031 50 -360 -10 1 0 0 0 1 0 0 0 1 87087.dat
0 STEP
0 // Add left quill attachment studs
1 10082 -150 -360 90 0 0 1 0 1 0 -1 0 0 87087.dat
0 STEP
0 // Add back quill attachment studs
1 10082 -150 -360 130 -1 0 0 0 1 0 0 0 -1 87087.dat
1 10082 -130 -360 150 -1 0 0 0 1 0 0 0 -1 87087.dat
0 STEP
0 // Add front quill attachment studs
1 10082 -110 -360 50 1 0 0 0 1 0 0 0 1 87087.dat
0 STEP
0 // Add back quill attachment studs
1 10082 -90 -360 150 -1 0 0 0 1 0 0 0 -1 87087.dat
1 10082 -70 -360 170 -1 0 0 0 1 0 0 0 -1 87087.dat
1 10082 -30 -360 170 -1 0 0 0 1 0 0 0 -1 87087.dat
1 10082 10 -360 170 -1 0 0 0 1 0 0 0 -1 87087.dat
0 STEP
0 // Add back quill attachment studs
1 10082 50 -360 170 -1 0 0 0 1 0 0 0 -1 87087.dat
1 10082 110 -360 150 -1 0 0 0 1 0 0 0 -1 87087.dat
0 STEP
0 // Add right quill attachment studs
1 10082 130 -360 50 0 0 -1 0 1 0 1 0 0 87087.dat
1 10082 150 -360 70 0 0 -1 0 1 0 1 0 0 87087.dat
0 STEP
0 // Add right quill attachment studs
1 10082 150 -360 110 0 0 -1 0 1 0 1 0 0 87087.dat
0 STEP
0 // Build the head · front
1 10031 -80 -360 10 0 0 -1 0 1 0 1 0 0 3002.dat
1 10031 0 -360 0 1 0 0 0 1 0 0 0 1 3001.dat
1 10031 80 -360 10 0 0 -1 0 1 0 1 0 0 3002.dat
1 10031 -50 -360 20 0 0 -1 0 1 0 1 0 0 3004.dat
0 STEP
0 // Build the head · front
1 10031 50 -360 20 0 0 -1 0 1 0 1 0 0 3004.dat
1 10031 0 -360 30 1 0 0 0 1 0 0 0 1 3010.dat
1 10082 -130 -360 80 0 0 -1 0 1 0 1 0 0 3010.dat
1 10082 -60 -360 60 1 0 0 0 1 0 0 0 1 3001.dat
0 STEP
0 // Build the head · front
1 10082 20 -360 60 1 0 0 0 1 0 0 0 1 3001.dat
1 10082 80 -360 80 0 0 -1 0 1 0 1 0 0 3001.dat
1 10082 110 -360 80 0 0 -1 0 1 0 1 0 0 3010.dat
1 10082 -150 -360 70 1 0 0 0 1 0 0 0 1 3005.dat
0 STEP
0 // Build the head · front
1 10082 -110 -360 100 0 0 -1 0 1 0 1 0 0 3010.dat
1 10082 130 -360 100 0 0 -1 0 1 0 1 0 0 3010.dat
1 10082 -60 -360 100 1 0 0 0 1 0 0 0 1 3001.dat
1 10082 20 -360 100 1 0 0 0 1 0 0 0 1 3001.dat
0 STEP
0 // Build the head · front
1 10082 150 -360 90 1 0 0 0 1 0 0 0 1 3005.dat
1 10082 -150 -360 110 1 0 0 0 1 0 0 0 1 3005.dat
0 STEP
0 // Build the head · rear
1 10082 -130 -360 130 1 0 0 0 1 0 0 0 1 3005.dat
1 10082 -60 -360 130 1 0 0 0 1 0 0 0 1 3010.dat
1 10082 20 -360 140 1 0 0 0 1 0 0 0 1 3001.dat
1 10082 80 -360 140 1 0 0 0 1 0 0 0 1 3003.dat
0 STEP
0 // Build the head · rear
1 10082 110 -360 130 1 0 0 0 1 0 0 0 1 3005.dat
1 10082 150 -360 130 1 0 0 0 1 0 0 0 1 3005.dat
1 10082 -110 -360 150 1 0 0 0 1 0 0 0 1 3005.dat
1 10082 -60 -360 150 1 0 0 0 1 0 0 0 1 3004.dat
0 STEP
0 // Build the head · rear
1 10082 -30 -360 150 1 0 0 0 1 0 0 0 1 3005.dat
1 10082 130 -360 150 1 0 0 0 1 0 0 0 1 3005.dat
1 10082 -50 -360 170 1 0 0 0 1 0 0 0 1 3005.dat
1 10082 -10 -360 170 1 0 0 0 1 0 0 0 1 3005.dat
0 STEP
0 // Build the head · rear
1 10082 30 -360 170 1 0 0 0 1 0 0 0 1 3005.dat
1 10082 70 -360 170 1 0 0 0 1 0 0 0 1 3005.dat
0 STEP
0 // Build the head · front
1 10031 -60 -384 0 1 0 0 0 1 0 0 0 1 3001.dat
1 10031 20 -384 0 1 0 0 0 1 0 0 0 1 3001.dat
1 10031 80 -384 10 0 0 -1 0 1 0 1 0 0 3002.dat
1 10031 -60 -384 30 1 0 0 0 1 0 0 0 1 3010.dat
0 STEP
0 // Build the head · front
1 10031 20 -384 30 1 0 0 0 1 0 0 0 1 3010.dat
1 10082 -120 -384 80 0 0 -1 0 1 0 1 0 0 3001.dat
1 10082 -80 -384 80 0 0 -1 0 1 0 1 0 0 3001.dat
1 10082 -40 -384 80 0 0 -1 0 1 0 1 0 0 3001.dat
0 STEP
0 // Build the head · front
1 10082 0 -384 80 0 0 -1 0 1 0 1 0 0 3001.dat
1 10082 40 -384 80 0 0 -1 0 1 0 1 0 0 3001.dat
1 10082 80 -384 80 0 0 -1 0 1 0 1 0 0 3001.dat
1 10082 120 -384 80 0 0 -1 0 1 0 1 0 0 3001.dat
0 STEP
0 // Build the head · front
1 10082 -150 -384 100 0 0 -1 0 1 0 1 0 0 3010.dat
1 10082 150 -384 100 0 0 -1 0 1 0 1 0 0 3010.dat
0 STEP
0 // Build the head · rear
1 10082 -100 -384 140 1 0 0 0 1 0 0 0 1 3001.dat
1 10082 -20 -384 140 1 0 0 0 1 0 0 0 1 3001.dat
1 10082 60 -384 140 1 0 0 0 1 0 0 0 1 3001.dat
1 10082 120 -384 140 0 0 -1 0 1 0 1 0 0 3003.dat
0 STEP
0 // Build the head · rear
1 10082 -40 -384 170 1 0 0 0 1 0 0 0 1 3010.dat
1 10082 40 -384 170 1 0 0 0 1 0 0 0 1 3010.dat
0 STEP
0 // Add quill tips
1 10082 -130 -384 50 0 0 -1 0 1 0 1 0 0 54200.dat
1 10082 110 -384 50 0 0 1 0 1 0 -1 0 0 54200.dat
1 10082 -150 -384 70 0 0 -1 0 1 0 1 0 0 54200.dat
1 10082 130 -384 70 0 0 1 0 1 0 -1 0 0 54200.dat
0 STEP
0 // Add quill tips
1 10082 150 -384 90 0 0 1 0 1 0 -1 0 0 54200.dat
1 10082 -150 -384 110 0 0 -1 0 1 0 1 0 0 54200.dat
1 10082 -130 -384 130 0 0 -1 0 1 0 1 0 0 54200.dat
1 10082 150 -384 130 0 0 1 0 1 0 -1 0 0 54200.dat
0 STEP
0 // Add quill tips
1 10082 -110 -384 150 0 0 -1 0 1 0 1 0 0 54200.dat
1 10082 90 -384 150 -1 0 0 0 1 0 0 0 -1 54200.dat
1 10082 130 -384 150 0 0 1 0 1 0 -1 0 0 54200.dat
1 10082 -50 -384 170 -1 0 0 0 1 0 0 0 -1 54200.dat
0 STEP
0 // Add quill tips
1 10082 -10 -384 170 -1 0 0 0 1 0 0 0 -1 54200.dat
1 10082 30 -384 170 -1 0 0 0 1 0 0 0 -1 54200.dat
1 10082 70 -384 170 -1 0 0 0 1 0 0 0 -1 54200.dat
0 STEP
0 // Add face and limb attachment bricks
1 10031 -90 -408 -10 1 0 0 0 1 0 0 0 1 87087.dat
1 10031 -70 -408 -10 1 0 0 0 1 0 0 0 1 87087.dat
1 10031 70 -408 -10 1 0 0 0 1 0 0 0 1 87087.dat
1 10031 90 -408 -10 1 0 0 0 1 0 0 0 1 87087.dat
0 STEP
0 // Add quill attachment studs
1 10082 -130 -408 110 -1 0 0 0 1 0 0 0 -1 87087.dat
1 10082 -110 -408 130 -1 0 0 0 1 0 0 0 -1 87087.dat
1 10082 -50 -408 150 -1 0 0 0 1 0 0 0 -1 87087.dat
1 10082 -10 -408 150 -1 0 0 0 1 0 0 0 -1 87087.dat
0 STEP
0 // Add quill attachment studs
1 10082 30 -408 150 -1 0 0 0 1 0 0 0 -1 87087.dat
1 10082 70 -408 150 -1 0 0 0 1 0 0 0 -1 87087.dat
0 STEP
0 // Add right quill attachment studs
1 10082 90 -408 50 0 0 -1 0 1 0 1 0 0 87087.dat
0 STEP
0 // Add back quill attachment studs
1 10082 90 -408 130 -1 0 0 0 1 0 0 0 -1 87087.dat
0 STEP
0 // Add right quill attachment studs
1 10082 110 -408 70 0 0 -1 0 1 0 1 0 0 87087.dat
1 10082 130 -408 90 0 0 -1 0 1 0 1 0 0 87087.dat
0 STEP
0 // Close the crown · front
1 10031 -20 -408 0 1 0 0 0 1 0 0 0 1 3001.dat
1 10031 40 -408 10 0 0 -1 0 1 0 1 0 0 3002.dat
1 10031 -80 -408 20 1 0 0 0 1 0 0 0 1 3003.dat
1 10031 80 -408 20 1 0 0 0 1 0 0 0 1 3003.dat
0 STEP
0 // Close the crown · front
1 10031 -20 -408 30 1 0 0 0 1 0 0 0 1 3010.dat
1 10082 -60 -408 60 1 0 0 0 1 0 0 0 1 3001.dat
1 10082 20 -408 60 1 0 0 0 1 0 0 0 1 3001.dat
1 10082 70 -408 80 0 0 -1 0 1 0 1 0 0 3010.dat
0 STEP
0 // Close the crown · front
1 10082 -110 -408 80 0 0 -1 0 1 0 1 0 0 3004.dat
1 10082 90 -408 80 0 0 -1 0 1 0 1 0 0 3004.dat
1 10082 -130 -408 90 1 0 0 0 1 0 0 0 1 3005.dat
1 10082 -60 -408 100 1 0 0 0 1 0 0 0 1 3001.dat
0 STEP
0 // Close the crown · front
1 10082 20 -408 100 1 0 0 0 1 0 0 0 1 3001.dat
1 10082 110 -408 100 0 0 -1 0 1 0 1 0 0 3004.dat
1 10082 -110 -408 110 1 0 0 0 1 0 0 0 1 3005.dat
1 10082 90 -408 110 1 0 0 0 1 0 0 0 1 3005.dat
0 STEP
0 // Close the crown · front
1 10082 130 -408 110 1 0 0 0 1 0 0 0 1 3005.dat
0 STEP
0 // Close the crown · rear
1 10082 -60 -408 130 1 0 0 0 1 0 0 0 1 3010.dat
1 10082 20 -408 130 1 0 0 0 1 0 0 0 1 3010.dat
1 10082 70 -408 130 1 0 0 0 1 0 0 0 1 3005.dat
1 10082 110 -408 130 1 0 0 0 1 0 0 0 1 3005.dat
0 STEP
0 // Close the crown · rear
1 10082 -70 -408 150 1 0 0 0 1 0 0 0 1 3005.dat
1 10082 -30 -408 150 1 0 0 0 1 0 0 0 1 3005.dat
1 10082 10 -408 150 1 0 0 0 1 0 0 0 1 3005.dat
1 10082 50 -408 150 1 0 0 0 1 0 0 0 1 3005.dat
0 STEP
0 // Add quill tips
1 10082 -70 -408 50 1 0 0 0 1 0 0 0 1 54200.dat
1 10082 90 -408 50 1 0 0 0 1 0 0 0 1 54200.dat
1 10082 -90 -408 70 1 0 0 0 1 0 0 0 1 54200.dat
1 10081 110 -408 70 0 0 1 0 1 0 -1 0 0 54200.dat
0 STEP
0 // Add quill tips
1 10082 -110 -408 90 0 0 -1 0 1 0 1 0 0 54200.dat
1 10082 130 -408 90 0 0 1 0 1 0 -1 0 0 54200.dat
1 10082 -130 -408 110 0 0 -1 0 1 0 1 0 0 54200.dat
1 10082 110 -408 110 0 0 1 0 1 0 -1 0 0 54200.dat
0 STEP
0 // Add quill tips
1 10081 -110 -408 130 0 0 -1 0 1 0 1 0 0 54200.dat
1 10082 90 -408 130 -1 0 0 0 1 0 0 0 -1 54200.dat
1 10081 -50 -408 150 -1 0 0 0 1 0 0 0 -1 54200.dat
1 10082 -10 -408 150 -1 0 0 0 1 0 0 0 -1 54200.dat
0 STEP
0 // Add quill tips
1 10081 30 -408 150 -1 0 0 0 1 0 0 0 -1 54200.dat
1 10082 70 -408 150 -1 0 0 0 1 0 0 0 -1 54200.dat
0 STEP
0 // Close the crown · front
1 10031 -20 -432 20 1 0 0 0 1 0 0 0 1 3001.dat
1 10031 40 -432 20 0 0 -1 0 1 0 1 0 0 3003.dat
1 10082 -40 -432 80 0 0 -1 0 1 0 1 0 0 3001.dat
1 10082 0 -432 80 0 0 -1 0 1 0 1 0 0 3001.dat
0 STEP
0 // Close the crown · front
1 10082 40 -432 80 0 0 -1 0 1 0 1 0 0 3001.dat
1 10082 -70 -432 100 0 0 -1 0 1 0 1 0 0 3010.dat
1 10082 70 -432 100 0 0 -1 0 1 0 1 0 0 3010.dat
1 10082 -90 -432 100 0 0 -1 0 1 0 1 0 0 3004.dat
0 STEP
0 // Close the crown · front
1 10082 90 -432 100 0 0 -1 0 1 0 1 0 0 3004.dat
0 STEP
0 // Close the crown · rear
1 10082 -20 -432 130 1 0 0 0 1 0 0 0 1 3010.dat
1 10082 40 -432 130 1 0 0 0 1 0 0 0 1 3004.dat
0 STEP
0 // Add quill tips
1 10082 -50 -432 50 1 0 0 0 1 0 0 0 1 54200.dat
1 10082 -10 -432 50 1 0 0 0 1 0 0 0 1 54200.dat
1 10082 30 -432 50 1 0 0 0 1 0 0 0 1 54200.dat
1 10082 -70 -432 70 1 0 0 0 1 0 0 0 1 54200.dat
0 STEP
0 // Add quill tips
1 10082 -30 -432 70 1 0 0 0 1 0 0 0 1 54200.dat
1 10082 10 -432 70 1 0 0 0 1 0 0 0 1 54200.dat
1 10082 50 -432 70 1 0 0 0 1 0 0 0 1 54200.dat
1 10082 -90 -432 90 1 0 0 0 1 0 0 0 1 54200.dat
0 STEP
0 // Add quill tips
1 10082 70 -432 90 1 0 0 0 1 0 0 0 1 54200.dat
1 10082 -70 -432 110 1 0 0 0 1 0 0 0 1 54200.dat
1 10082 90 -432 110 1 0 0 0 1 0 0 0 1 54200.dat
1 10082 -50 -432 130 -1 0 0 0 1 0 0 0 -1 54200.dat
0 STEP
0 // Add quill tips
1 10082 -10 -432 130 -1 0 0 0 1 0 0 0 -1 54200.dat
1 10082 30 -432 130 -1 0 0 0 1 0 0 0 -1 54200.dat
1 10082 70 -432 130 -1 0 0 0 1 0 0 0 -1 54200.dat
0 STEP
0 // Close the crown · front
1 10082 -20 -456 100 1 0 0 0 1 0 0 0 1 3001.dat
1 10082 40 -456 100 1 0 0 0 1 0 0 0 1 3003.dat
0 STEP
0 // Add quill tips
1 10082 -30 -456 90 1 0 0 0 1 0 0 0 1 54200.dat
1 10081 10 -456 90 1 0 0 0 1 0 0 0 1 54200.dat
1 10082 50 -456 90 1 0 0 0 1 0 0 0 1 54200.dat
1 10082 -50 -456 110 1 0 0 0 1 0 0 0 1 54200.dat
0 STEP
0 // Add quill tips
1 10081 -10 -456 110 1 0 0 0 1 0 0 0 1 54200.dat
1 10082 30 -456 110 1 0 0 0 1 0 0 0 1 54200.dat
0 STEP
0 // Round the left foot
1 10081 -80 -32 -60 1 0 0 0 1 0 0 0 1 3020.dat
1 10081 -100 -32 -60 -1 0 0 0 1 0 0 0 -1 15068.dat
1 10081 -60 -32 -60 -1 0 0 0 1 0 0 0 -1 15068.dat
0 STEP
0 // Round the right foot
1 10081 80 -32 -60 1 0 0 0 1 0 0 0 1 3020.dat
1 10081 60 -32 -60 -1 0 0 0 1 0 0 0 -1 15068.dat
1 10081 100 -32 -60 -1 0 0 0 1 0 0 0 -1 15068.dat
0 STEP
0 // Attach the left arm
1 10081 -80 -140 -28 0 0 -1 -1 0 0 0 1 0 3020.dat
1 10081 -80 -120 -28 -1 0 0 0 0 1 0 1 0 15068.dat
1 10081 -80 -160 -28 1 0 0 0 0 -1 0 1 0 15068.dat
0 STEP
0 // Attach the right arm
1 10081 80 -140 -28 0 0 -1 -1 0 0 0 1 0 3020.dat
1 10081 80 -120 -28 -1 0 0 0 0 1 0 1 0 15068.dat
1 10081 80 -160 -28 1 0 0 0 0 -1 0 1 0 15068.dat
0 STEP
0 // Build the projecting muzzle
1 10031 0 -292 -28 1 0 0 0 0 -1 0 1 0 3032.dat
1 10031 -40 -272 -28 0 0 1 1 0 0 0 1 0 15068.dat
1 10031 40 -272 -28 0 0 -1 -1 0 0 0 1 0 15068.dat
1 10031 0 -272 -36 1 0 0 0 0 -1 0 1 0 3022.dat
0 STEP
0 // Build the projecting muzzle
1 10082 0 -282 -44 1 0 0 0 0 -1 0 1 0 3069b.dat
1 10031 0 -262 -44 1 0 0 0 0 -1 0 1 0 3069b.dat
0 STEP
0 // Form Max’s arched muzzle
1 10082 -30 -302 -36 -1 0 0 0 0 1 0 1 0 27925.dat
1 10082 30 -302 -36 0 0 -1 -1 0 0 0 1 0 27925.dat
1 10082 0 -322 -36 1 0 0 0 0 -1 0 1 0 3069b.dat
1 10031 0 -302 -36 1 0 0 0 0 -1 0 1 0 15573.dat
0 STEP
0 // Form Max’s arched muzzle
1 10080 0 -302 -44 1 0 0 0 0 -1 0 1 0 98138.dat
0 STEP
0 // Attach the glossy black eyes
1 10080 -50 -350 -28 1 0 0 0 0 -1 0 1 0 98138.dat
0 STEP
0 // Attach the glossy black eyes
1 10080 50 -350 -28 1 0 0 0 0 -1 0 1 0 98138.dat
0 STEP
0 // Build the round ears
1 10081 -80 -428 -44 1 0 0 0 0 -1 0 1 0 87081.dat
1 10031 -80 -448 -52 1 0 0 0 0 -1 0 1 0 14769.dat
0 STEP
0 // Build the round ears
1 10081 80 -428 -44 1 0 0 0 0 -1 0 1 0 87081.dat
1 10031 80 -448 -52 1 0 0 0 0 -1 0 1 0 14769.dat
0 STEP
0 // Texture the front of the coat
1 10082 170 -62 40 1 0 0 0 0 -1 0 1 0 54200.dat
1 10082 170 -110 40 1 0 0 0 0 -1 0 1 0 54200.dat
1 10081 170 -158 40 1 0 0 0 0 -1 0 1 0 54200.dat
1 10081 -110 -350 40 1 0 0 0 0 -1 0 1 0 54200.dat
0 STEP
0 // Texture the left of the coat
1 10081 -200 -62 50 0 1 0 0 0 -1 -1 0 0 54200.dat
1 10082 -220 -62 70 0 1 0 0 0 -1 -1 0 0 54200.dat
0 STEP
0 // Texture the left of the coat
1 10081 -220 -62 110 0 1 0 0 0 -1 -1 0 0 54200.dat
0 STEP
0 // Texture the left of the coat
1 10082 -200 -110 50 0 1 0 0 0 -1 -1 0 0 54200.dat
1 10082 -220 -110 70 0 1 0 0 0 -1 -1 0 0 54200.dat
0 STEP
0 // Texture the left of the coat
1 10082 -220 -110 110 0 1 0 0 0 -1 -1 0 0 54200.dat
0 STEP
0 // Texture the left of the coat
1 10082 -200 -158 50 0 1 0 0 0 -1 -1 0 0 54200.dat
1 10082 -220 -158 70 0 1 0 0 0 -1 -1 0 0 54200.dat
0 STEP
0 // Texture the left of the coat
1 10082 -220 -158 110 0 1 0 0 0 -1 -1 0 0 54200.dat
0 STEP
0 // Texture the left of the coat
1 10082 -200 -254 90 0 1 0 0 0 -1 -1 0 0 54200.dat
1 10082 -140 -302 30 0 1 0 0 0 -1 -1 0 0 54200.dat
1 10082 -160 -302 50 0 1 0 0 0 -1 -1 0 0 54200.dat
1 10082 -180 -302 70 0 1 0 0 0 -1 -1 0 0 54200.dat
0 STEP
0 // Texture the left of the coat
1 10082 -180 -302 110 0 1 0 0 0 -1 -1 0 0 54200.dat
0 STEP
0 // Texture the back of the coat
1 10082 210 -62 140 -1 0 0 0 0 -1 0 -1 0 54200.dat
1 10082 -170 -62 160 -1 0 0 0 0 -1 0 -1 0 54200.dat
1 10082 190 -62 160 -1 0 0 0 0 -1 0 -1 0 54200.dat
1 10082 -150 -62 180 -1 0 0 0 0 -1 0 -1 0 54200.dat
0 STEP
0 // Texture the back of the coat
1 10082 130 -62 180 -1 0 0 0 0 -1 0 -1 0 54200.dat
1 10082 -90 -62 200 -1 0 0 0 0 -1 0 -1 0 54200.dat
1 10082 -50 -62 200 -1 0 0 0 0 -1 0 -1 0 54200.dat
1 10082 -10 -62 200 -1 0 0 0 0 -1 0 -1 0 54200.dat
0 STEP
0 // Texture the back of the coat
1 10081 30 -62 200 -1 0 0 0 0 -1 0 -1 0 54200.dat
1 10082 70 -62 200 -1 0 0 0 0 -1 0 -1 0 54200.dat
1 10082 110 -62 200 -1 0 0 0 0 -1 0 -1 0 54200.dat
1 10082 210 -110 140 -1 0 0 0 0 -1 0 -1 0 54200.dat
0 STEP
0 // Texture the back of the coat
1 10082 -170 -110 160 -1 0 0 0 0 -1 0 -1 0 54200.dat
1 10081 190 -110 160 -1 0 0 0 0 -1 0 -1 0 54200.dat
1 10081 -150 -110 180 -1 0 0 0 0 -1 0 -1 0 54200.dat
1 10082 130 -110 180 -1 0 0 0 0 -1 0 -1 0 54200.dat
0 STEP
0 // Texture the back of the coat
1 10081 210 -158 140 -1 0 0 0 0 -1 0 -1 0 54200.dat
1 10082 -170 -158 160 -1 0 0 0 0 -1 0 -1 0 54200.dat
1 10082 190 -158 160 -1 0 0 0 0 -1 0 -1 0 54200.dat
1 10082 -150 -158 180 -1 0 0 0 0 -1 0 -1 0 54200.dat
0 STEP
0 // Texture the back of the coat
1 10081 130 -158 180 -1 0 0 0 0 -1 0 -1 0 54200.dat
1 10082 -90 -158 200 -1 0 0 0 0 -1 0 -1 0 54200.dat
1 10082 -50 -158 200 -1 0 0 0 0 -1 0 -1 0 54200.dat
1 10081 -10 -158 200 -1 0 0 0 0 -1 0 -1 0 54200.dat
0 STEP
0 // Texture the back of the coat
1 10082 30 -158 200 -1 0 0 0 0 -1 0 -1 0 54200.dat
1 10082 70 -158 200 -1 0 0 0 0 -1 0 -1 0 54200.dat
1 10082 110 -158 200 -1 0 0 0 0 -1 0 -1 0 54200.dat
1 10082 -170 -206 160 -1 0 0 0 0 -1 0 -1 0 54200.dat
0 STEP
0 // Texture the back of the coat
1 10082 -150 -206 180 -1 0 0 0 0 -1 0 -1 0 54200.dat
1 10082 130 -206 180 -1 0 0 0 0 -1 0 -1 0 54200.dat
1 10082 -190 -254 140 -1 0 0 0 0 -1 0 -1 0 54200.dat
1 10081 -170 -254 160 -1 0 0 0 0 -1 0 -1 0 54200.dat
0 STEP
0 // Texture the back of the coat
1 10082 -150 -254 180 -1 0 0 0 0 -1 0 -1 0 54200.dat
1 10081 -110 -254 180 -1 0 0 0 0 -1 0 -1 0 54200.dat
1 10082 130 -254 180 -1 0 0 0 0 -1 0 -1 0 54200.dat
1 10082 -90 -254 200 -1 0 0 0 0 -1 0 -1 0 54200.dat
0 STEP
0 // Texture the back of the coat
1 10081 -50 -254 200 -1 0 0 0 0 -1 0 -1 0 54200.dat
1 10082 -10 -254 200 -1 0 0 0 0 -1 0 -1 0 54200.dat
1 10082 30 -254 200 -1 0 0 0 0 -1 0 -1 0 54200.dat
1 10082 70 -254 200 -1 0 0 0 0 -1 0 -1 0 54200.dat
0 STEP
0 // Texture the back of the coat
1 10082 170 -302 140 -1 0 0 0 0 -1 0 -1 0 54200.dat
1 10082 150 -302 160 -1 0 0 0 0 -1 0 -1 0 54200.dat
1 10082 -110 -302 180 -1 0 0 0 0 -1 0 -1 0 54200.dat
1 10082 130 -302 180 -1 0 0 0 0 -1 0 -1 0 54200.dat
0 STEP
0 // Texture the back of the coat
1 10082 -150 -350 140 -1 0 0 0 0 -1 0 -1 0 54200.dat
1 10082 -130 -350 160 -1 0 0 0 0 -1 0 -1 0 54200.dat
1 10082 110 -350 160 -1 0 0 0 0 -1 0 -1 0 54200.dat
1 10082 -70 -350 180 -1 0 0 0 0 -1 0 -1 0 54200.dat
0 STEP
0 // Texture the back of the coat
1 10082 -30 -350 180 -1 0 0 0 0 -1 0 -1 0 54200.dat
1 10082 10 -350 180 -1 0 0 0 0 -1 0 -1 0 54200.dat
1 10081 50 -350 180 -1 0 0 0 0 -1 0 -1 0 54200.dat
0 STEP
0 // Texture the right of the coat
1 10082 220 -62 90 0 -1 0 0 0 -1 1 0 0 54200.dat
1 10081 220 -110 90 0 -1 0 0 0 -1 1 0 0 54200.dat
1 10082 220 -158 90 0 -1 0 0 0 -1 1 0 0 54200.dat
1 10082 160 -206 30 0 -1 0 0 0 -1 1 0 0 54200.dat
0 STEP
0 // Texture the right of the coat
1 10082 160 -254 30 0 -1 0 0 0 -1 1 0 0 54200.dat
1 10082 180 -254 50 0 -1 0 0 0 -1 1 0 0 54200.dat
1 10081 200 -254 70 0 -1 0 0 0 -1 1 0 0 54200.dat
0 STEP
0 // Texture the right of the coat
1 10082 200 -254 110 0 -1 0 0 0 -1 1 0 0 54200.dat
0 STEP
0 // Texture the right of the coat
1 10082 180 -302 90 0 -1 0 0 0 -1 1 0 0 54200.dat
1 10082 140 -350 50 0 -1 0 0 0 -1 1 0 0 54200.dat
0 STEP
