0 Max the PostHog Hedgehog
0 Name: max-posthog-seated.ldr
0 Author: Designed with Codex for Adam
0 // BrickWith import copy: standard LDraw color IDs (Tan 19, Reddish Brown 70, Dark Brown 308, Black 0).
0 // Lay out the feet and foundation · front
1 308 -80 -8 0 0 0 -1 0 1 0 1 0 0 3035.dat
1 308 80 -8 0 0 0 -1 0 1 0 1 0 0 3035.dat
1 308 0 -8 80 0 0 -1 0 1 0 1 0 0 3035.dat
1 308 -140 -8 100 0 0 -1 0 1 0 1 0 0 3034.dat
0 STEP
0 // Lay out the feet and foundation · front
1 308 140 -8 100 0 0 -1 0 1 0 1 0 0 3034.dat
1 308 -180 -8 100 0 0 -1 0 1 0 1 0 0 3795.dat
1 308 180 -8 100 0 0 -1 0 1 0 1 0 0 3795.dat
1 308 -210 -8 100 0 0 -1 0 1 0 1 0 0 3710.dat
0 STEP
0 // Lay out the feet and foundation · front
1 308 210 -8 100 0 0 -1 0 1 0 1 0 0 3710.dat
1 308 -80 -8 140 0 0 -1 0 1 0 1 0 0 3032.dat
1 308 80 -8 140 0 0 -1 0 1 0 1 0 0 3032.dat
0 STEP
0 // Lay out the feet and foundation · rear
1 308 0 -8 180 1 0 0 0 1 0 0 0 1 3020.dat
0 STEP
0 // Lock the coat edges to the foundation
1 308 -140 -16 100 1 0 0 0 1 0 0 0 1 3034.dat
1 308 140 -16 100 1 0 0 0 1 0 0 0 1 3034.dat
0 STEP
0 // Tie the feet and foundation · front
1 308 -80 -16 0 0 0 -1 0 1 0 1 0 0 3035.dat
1 308 80 -16 0 0 0 -1 0 1 0 1 0 0 3035.dat
1 308 0 -16 80 0 0 -1 0 1 0 1 0 0 3035.dat
1 308 -140 -16 50 0 0 -1 0 1 0 1 0 0 3021.dat
0 STEP
0 // Tie the feet and foundation · front
1 308 140 -16 50 0 0 -1 0 1 0 1 0 0 3021.dat
1 308 -180 -16 60 0 0 -1 0 1 0 1 0 0 3022.dat
1 308 180 -16 60 0 0 -1 0 1 0 1 0 0 3022.dat
1 308 -210 -16 70 0 0 -1 0 1 0 1 0 0 3024.dat
0 STEP
0 // Tie the feet and foundation · front
1 308 210 -16 70 0 0 -1 0 1 0 1 0 0 3024.dat
1 308 -50 -16 140 0 0 -1 0 1 0 1 0 0 3666.dat
1 308 50 -16 140 0 0 -1 0 1 0 1 0 0 3666.dat
0 STEP
0 // Tie the feet and foundation · rear
1 308 -160 -16 130 1 0 0 0 1 0 0 0 1 3666.dat
1 308 -80 -16 160 0 0 -1 0 1 0 1 0 0 3020.dat
1 308 120 -16 140 1 0 0 0 1 0 0 0 1 3795.dat
1 308 190 -16 140 0 0 -1 0 1 0 1 0 0 3023.dat
0 STEP
0 // Tie the feet and foundation · rear
1 308 210 -16 130 0 0 -1 0 1 0 1 0 0 3024.dat
1 308 -160 -16 150 1 0 0 0 1 0 0 0 1 3710.dat
1 308 -110 -16 170 0 0 -1 0 1 0 1 0 0 3623.dat
1 308 -140 -16 170 1 0 0 0 1 0 0 0 1 3023.dat
0 STEP
0 // Tie the feet and foundation · rear
1 308 0 -16 180 1 0 0 0 1 0 0 0 1 3020.dat
1 308 90 -16 180 1 0 0 0 1 0 0 0 1 3021.dat
1 308 140 -16 170 1 0 0 0 1 0 0 0 1 3023.dat
0 STEP
0 // Tie the feet and foundation · front
1 70 -80 -24 -60 1 0 0 0 1 0 0 0 1 3020.dat
1 70 80 -24 -60 1 0 0 0 1 0 0 0 1 3020.dat
1 70 -80 -24 -20 1 0 0 0 1 0 0 0 1 3020.dat
1 70 80 -24 -20 1 0 0 0 1 0 0 0 1 3020.dat
0 STEP
0 // Tie the feet and foundation · front
1 308 -40 -24 60 1 0 0 0 1 0 0 0 1 3036.dat
1 308 80 -24 80 0 0 -1 0 1 0 1 0 0 3035.dat
1 308 -140 -24 100 0 0 -1 0 1 0 1 0 0 3034.dat
1 308 140 -24 100 0 0 -1 0 1 0 1 0 0 3034.dat
0 STEP
0 // Tie the feet and foundation · front
1 308 -180 -24 100 0 0 -1 0 1 0 1 0 0 3795.dat
1 308 180 -24 100 0 0 -1 0 1 0 1 0 0 3795.dat
1 308 -210 -24 100 0 0 -1 0 1 0 1 0 0 3710.dat
1 308 210 -24 100 0 0 -1 0 1 0 1 0 0 3710.dat
0 STEP
0 // Tie the feet and foundation · rear
1 308 -40 -24 160 1 0 0 0 1 0 0 0 1 3035.dat
1 308 80 -24 180 1 0 0 0 1 0 0 0 1 3020.dat
0 STEP
0 // Build the lower coat · front
1 19 -80 -48 20 1 0 0 0 1 0 0 0 1 3001.dat
1 19 0 -48 20 1 0 0 0 1 0 0 0 1 3001.dat
1 19 80 -48 20 1 0 0 0 1 0 0 0 1 3001.dat
1 308 -140 -48 60 0 0 -1 0 1 0 1 0 0 3001.dat
0 STEP
0 // Build the lower coat · front
1 308 140 -48 60 0 0 -1 0 1 0 1 0 0 3001.dat
1 308 -180 -48 80 0 0 -1 0 1 0 1 0 0 3001.dat
1 308 -100 -48 80 0 0 -1 0 1 0 1 0 0 3001.dat
1 308 -60 -48 80 0 0 -1 0 1 0 1 0 0 3001.dat
0 STEP
0 // Build the lower coat · front
1 308 -20 -48 80 0 0 -1 0 1 0 1 0 0 3001.dat
1 308 20 -48 80 0 0 -1 0 1 0 1 0 0 3001.dat
1 308 60 -48 80 0 0 -1 0 1 0 1 0 0 3001.dat
1 308 100 -48 80 0 0 -1 0 1 0 1 0 0 3001.dat
0 STEP
0 // Build the lower coat · front
1 308 180 -48 80 0 0 -1 0 1 0 1 0 0 3001.dat
1 308 -210 -48 100 0 0 -1 0 1 0 1 0 0 3010.dat
1 308 210 -48 100 0 0 -1 0 1 0 1 0 0 3010.dat
1 308 -140 -48 140 0 0 -1 0 1 0 1 0 0 3001.dat
0 STEP
0 // Build the lower coat · front
1 308 140 -48 140 0 0 -1 0 1 0 1 0 0 3001.dat
0 STEP
0 // Build the lower coat · rear
1 308 -180 -48 140 0 0 -1 0 1 0 1 0 0 3003.dat
1 308 -100 -48 160 0 0 -1 0 1 0 1 0 0 3001.dat
1 308 -60 -48 160 0 0 -1 0 1 0 1 0 0 3001.dat
1 308 -20 -48 160 0 0 -1 0 1 0 1 0 0 3001.dat
0 STEP
0 // Build the lower coat · rear
1 308 20 -48 160 0 0 -1 0 1 0 1 0 0 3001.dat
1 308 60 -48 160 0 0 -1 0 1 0 1 0 0 3001.dat
1 308 100 -48 160 0 0 -1 0 1 0 1 0 0 3001.dat
1 308 180 -48 140 0 0 -1 0 1 0 1 0 0 3003.dat
0 STEP
0 // Add left quill attachment studs
1 308 -210 -72 70 0 0 1 0 1 0 -1 0 0 87087.dat
0 STEP
0 // Add left quill attachment studs
1 308 -210 -72 110 0 0 1 0 1 0 -1 0 0 87087.dat
0 STEP
0 // Add left quill attachment studs
1 308 -190 -72 50 0 0 1 0 1 0 -1 0 0 87087.dat
0 STEP
0 // Add back quill attachment studs
1 308 -170 -72 150 -1 0 0 0 1 0 0 0 -1 87087.dat
1 308 -150 -72 170 -1 0 0 0 1 0 0 0 -1 87087.dat
1 308 -90 -72 190 -1 0 0 0 1 0 0 0 -1 87087.dat
1 308 -50 -72 190 -1 0 0 0 1 0 0 0 -1 87087.dat
0 STEP
0 // Add back quill attachment studs
1 308 -10 -72 190 -1 0 0 0 1 0 0 0 -1 87087.dat
1 308 30 -72 190 -1 0 0 0 1 0 0 0 -1 87087.dat
1 308 70 -72 190 -1 0 0 0 1 0 0 0 -1 87087.dat
1 308 110 -72 190 -1 0 0 0 1 0 0 0 -1 87087.dat
0 STEP
0 // Add back quill attachment studs
1 308 130 -72 170 -1 0 0 0 1 0 0 0 -1 87087.dat
0 STEP
0 // Add right quill attachment studs
1 308 150 -72 30 0 0 -1 0 1 0 1 0 0 87087.dat
0 STEP
0 // Add front quill attachment studs
1 308 170 -72 50 1 0 0 0 1 0 0 0 1 87087.dat
0 STEP
0 // Add back quill attachment studs
1 308 190 -72 150 -1 0 0 0 1 0 0 0 -1 87087.dat
0 STEP
0 // Add right quill attachment studs
1 308 210 -72 90 0 0 -1 0 1 0 1 0 0 87087.dat
0 STEP
0 // Add back quill attachment studs
1 308 210 -72 130 -1 0 0 0 1 0 0 0 -1 87087.dat
0 STEP
0 // Build the lower coat · front
1 19 -80 -72 20 1 0 0 0 1 0 0 0 1 3001.dat
1 19 0 -72 20 1 0 0 0 1 0 0 0 1 3001.dat
1 19 80 -72 20 1 0 0 0 1 0 0 0 1 3001.dat
1 308 -140 -72 60 0 0 -1 0 1 0 1 0 0 3001.dat
0 STEP
0 // Build the lower coat · front
1 308 130 -72 60 0 0 -1 0 1 0 1 0 0 3010.dat
1 308 -170 -72 80 0 0 -1 0 1 0 1 0 0 3010.dat
1 308 -80 -72 60 1 0 0 0 1 0 0 0 1 3001.dat
1 308 0 -72 60 1 0 0 0 1 0 0 0 1 3001.dat
0 STEP
0 // Build the lower coat · front
1 308 80 -72 60 1 0 0 0 1 0 0 0 1 3001.dat
1 308 150 -72 80 0 0 -1 0 1 0 1 0 0 3010.dat
1 308 190 -72 80 0 0 -1 0 1 0 1 0 0 3010.dat
1 308 -190 -72 100 0 0 -1 0 1 0 1 0 0 3010.dat
0 STEP
0 // Build the lower coat · front
1 308 170 -72 100 0 0 -1 0 1 0 1 0 0 3010.dat
1 308 210 -72 70 1 0 0 0 1 0 0 0 1 3005.dat
1 308 -210 -72 90 1 0 0 0 1 0 0 0 1 3005.dat
1 308 -80 -72 100 1 0 0 0 1 0 0 0 1 3001.dat
0 STEP
0 // Build the lower coat · front
1 308 0 -72 100 1 0 0 0 1 0 0 0 1 3001.dat
1 308 80 -72 100 1 0 0 0 1 0 0 0 1 3001.dat
1 308 -140 -72 130 0 0 -1 0 1 0 1 0 0 3002.dat
1 308 130 -72 120 0 0 -1 0 1 0 1 0 0 3004.dat
0 STEP
0 // Build the lower coat · front
1 308 210 -72 110 1 0 0 0 1 0 0 0 1 3005.dat
0 STEP
0 // Build the lower coat · rear
1 308 -210 -72 130 1 0 0 0 1 0 0 0 1 3005.dat
1 308 -170 -72 130 1 0 0 0 1 0 0 0 1 3005.dat
1 308 -80 -72 140 1 0 0 0 1 0 0 0 1 3001.dat
1 308 0 -72 140 1 0 0 0 1 0 0 0 1 3001.dat
0 STEP
0 // Build the lower coat · rear
1 308 80 -72 140 1 0 0 0 1 0 0 0 1 3001.dat
1 308 150 -72 140 0 0 -1 0 1 0 1 0 0 3004.dat
1 308 190 -72 130 1 0 0 0 1 0 0 0 1 3005.dat
1 308 -190 -72 150 1 0 0 0 1 0 0 0 1 3005.dat
0 STEP
0 // Build the lower coat · rear
1 308 130 -72 150 1 0 0 0 1 0 0 0 1 3005.dat
1 308 170 -72 150 1 0 0 0 1 0 0 0 1 3005.dat
1 308 -100 -72 170 1 0 0 0 1 0 0 0 1 3010.dat
1 308 -20 -72 170 1 0 0 0 1 0 0 0 1 3010.dat
0 STEP
0 // Build the lower coat · rear
1 308 60 -72 170 1 0 0 0 1 0 0 0 1 3010.dat
1 308 110 -72 170 1 0 0 0 1 0 0 0 1 3005.dat
1 308 150 -72 170 1 0 0 0 1 0 0 0 1 3005.dat
1 308 -110 -72 190 1 0 0 0 1 0 0 0 1 3005.dat
0 STEP
0 // Build the lower coat · rear
1 308 -70 -72 190 1 0 0 0 1 0 0 0 1 3005.dat
1 308 -30 -72 190 1 0 0 0 1 0 0 0 1 3005.dat
1 308 10 -72 190 1 0 0 0 1 0 0 0 1 3005.dat
1 308 50 -72 190 1 0 0 0 1 0 0 0 1 3005.dat
0 STEP
0 // Build the lower coat · rear
1 308 90 -72 190 1 0 0 0 1 0 0 0 1 3005.dat
0 STEP
0 // Build the lower coat · front
1 19 -80 -96 0 1 0 0 0 1 0 0 0 1 3001.dat
1 19 0 -96 0 1 0 0 0 1 0 0 0 1 3001.dat
1 19 80 -96 0 1 0 0 0 1 0 0 0 1 3001.dat
1 308 -140 -96 60 0 0 -1 0 1 0 1 0 0 3001.dat
0 STEP
0 // Build the lower coat · front
1 19 -80 -96 30 1 0 0 0 1 0 0 0 1 3010.dat
1 19 0 -96 30 1 0 0 0 1 0 0 0 1 3010.dat
1 19 80 -96 30 1 0 0 0 1 0 0 0 1 3010.dat
1 308 140 -96 60 0 0 -1 0 1 0 1 0 0 3001.dat
0 STEP
0 // Build the lower coat · front
1 308 -180 -96 80 0 0 -1 0 1 0 1 0 0 3001.dat
1 308 -100 -96 80 0 0 -1 0 1 0 1 0 0 3001.dat
1 308 -60 -96 80 0 0 -1 0 1 0 1 0 0 3001.dat
1 308 -20 -96 80 0 0 -1 0 1 0 1 0 0 3001.dat
0 STEP
0 // Build the lower coat · front
1 308 20 -96 80 0 0 -1 0 1 0 1 0 0 3001.dat
1 308 60 -96 80 0 0 -1 0 1 0 1 0 0 3001.dat
1 308 100 -96 80 0 0 -1 0 1 0 1 0 0 3001.dat
1 308 180 -96 80 0 0 -1 0 1 0 1 0 0 3001.dat
0 STEP
0 // Build the lower coat · front
1 308 -210 -96 100 0 0 -1 0 1 0 1 0 0 3010.dat
1 308 210 -96 100 0 0 -1 0 1 0 1 0 0 3010.dat
1 308 -140 -96 140 0 0 -1 0 1 0 1 0 0 3001.dat
1 308 140 -96 140 0 0 -1 0 1 0 1 0 0 3001.dat
0 STEP
0 // Build the lower coat · rear
1 308 -180 -96 140 0 0 -1 0 1 0 1 0 0 3003.dat
1 308 -100 -96 160 0 0 -1 0 1 0 1 0 0 3001.dat
1 308 -60 -96 160 0 0 -1 0 1 0 1 0 0 3001.dat
1 308 -20 -96 160 0 0 -1 0 1 0 1 0 0 3001.dat
0 STEP
0 // Build the lower coat · rear
1 308 20 -96 160 0 0 -1 0 1 0 1 0 0 3001.dat
1 308 60 -96 160 0 0 -1 0 1 0 1 0 0 3001.dat
1 308 100 -96 160 0 0 -1 0 1 0 1 0 0 3001.dat
1 308 180 -96 140 0 0 -1 0 1 0 1 0 0 3003.dat
0 STEP
0 // Add face and limb attachment bricks
1 19 -90 -120 -10 1 0 0 0 1 0 0 0 1 87087.dat
1 19 -70 -120 -10 1 0 0 0 1 0 0 0 1 87087.dat
1 19 70 -120 -10 1 0 0 0 1 0 0 0 1 87087.dat
1 19 90 -120 -10 1 0 0 0 1 0 0 0 1 87087.dat
0 STEP
0 // Add left quill attachment studs
1 308 -210 -120 70 0 0 1 0 1 0 -1 0 0 87087.dat
0 STEP
0 // Add left quill attachment studs
1 308 -210 -120 110 0 0 1 0 1 0 -1 0 0 87087.dat
0 STEP
0 // Add left quill attachment studs
1 308 -190 -120 50 0 0 1 0 1 0 -1 0 0 87087.dat
0 STEP
0 // Add back quill attachment studs
1 308 -170 -120 150 -1 0 0 0 1 0 0 0 -1 87087.dat
1 308 -150 -120 170 -1 0 0 0 1 0 0 0 -1 87087.dat
1 308 130 -120 170 -1 0 0 0 1 0 0 0 -1 87087.dat
0 STEP
0 // Add right quill attachment studs
1 308 150 -120 30 0 0 -1 0 1 0 1 0 0 87087.dat
0 STEP
0 // Add front quill attachment studs
1 308 170 -120 50 1 0 0 0 1 0 0 0 1 87087.dat
0 STEP
0 // Add back quill attachment studs
1 308 190 -120 150 -1 0 0 0 1 0 0 0 -1 87087.dat
0 STEP
0 // Add right quill attachment studs
1 308 210 -120 90 0 0 -1 0 1 0 1 0 0 87087.dat
0 STEP
0 // Add back quill attachment studs
1 308 210 -120 130 -1 0 0 0 1 0 0 0 -1 87087.dat
0 STEP
0 // Shape the belly · front
1 19 -110 -120 0 0 0 -1 0 1 0 1 0 0 3004.dat
1 19 -20 -120 0 1 0 0 0 1 0 0 0 1 3001.dat
1 19 40 -120 10 0 0 -1 0 1 0 1 0 0 3002.dat
1 19 110 -120 0 0 0 -1 0 1 0 1 0 0 3004.dat
0 STEP
0 // Shape the belly · front
1 19 -80 -120 20 1 0 0 0 1 0 0 0 1 3003.dat
1 19 80 -120 20 1 0 0 0 1 0 0 0 1 3003.dat
1 308 -140 -120 60 0 0 -1 0 1 0 1 0 0 3001.dat
1 19 -110 -120 30 1 0 0 0 1 0 0 0 1 3005.dat
0 STEP
0 // Shape the belly · front
1 19 -20 -120 30 1 0 0 0 1 0 0 0 1 3010.dat
1 19 110 -120 30 1 0 0 0 1 0 0 0 1 3005.dat
1 308 130 -120 60 0 0 -1 0 1 0 1 0 0 3010.dat
1 308 -170 -120 80 0 0 -1 0 1 0 1 0 0 3010.dat
0 STEP
0 // Shape the belly · front
1 308 -80 -120 60 1 0 0 0 1 0 0 0 1 3001.dat
1 308 0 -120 60 1 0 0 0 1 0 0 0 1 3001.dat
1 308 80 -120 60 1 0 0 0 1 0 0 0 1 3001.dat
1 308 150 -120 80 0 0 -1 0 1 0 1 0 0 3010.dat
0 STEP
0 // Shape the belly · front
1 308 190 -120 80 0 0 -1 0 1 0 1 0 0 3010.dat
1 308 -190 -120 100 0 0 -1 0 1 0 1 0 0 3010.dat
1 308 170 -120 100 0 0 -1 0 1 0 1 0 0 3010.dat
1 308 210 -120 70 1 0 0 0 1 0 0 0 1 3005.dat
0 STEP
0 // Shape the belly · front
1 308 -210 -120 90 1 0 0 0 1 0 0 0 1 3005.dat
1 308 -80 -120 100 1 0 0 0 1 0 0 0 1 3001.dat
1 308 0 -120 100 1 0 0 0 1 0 0 0 1 3001.dat
1 308 80 -120 100 1 0 0 0 1 0 0 0 1 3001.dat
0 STEP
0 // Shape the belly · front
1 308 -140 -120 130 0 0 -1 0 1 0 1 0 0 3002.dat
1 308 130 -120 120 0 0 -1 0 1 0 1 0 0 3004.dat
1 308 210 -120 110 1 0 0 0 1 0 0 0 1 3005.dat
0 STEP
0 // Shape the belly · rear
1 308 -210 -120 130 1 0 0 0 1 0 0 0 1 3005.dat
1 308 -170 -120 130 1 0 0 0 1 0 0 0 1 3005.dat
1 308 -80 -120 140 1 0 0 0 1 0 0 0 1 3001.dat
1 308 0 -120 140 1 0 0 0 1 0 0 0 1 3001.dat
0 STEP
0 // Shape the belly · rear
1 308 80 -120 140 1 0 0 0 1 0 0 0 1 3001.dat
1 308 150 -120 140 0 0 -1 0 1 0 1 0 0 3004.dat
1 308 190 -120 130 1 0 0 0 1 0 0 0 1 3005.dat
1 308 -190 -120 150 1 0 0 0 1 0 0 0 1 3005.dat
0 STEP
0 // Shape the belly · rear
1 308 130 -120 150 1 0 0 0 1 0 0 0 1 3005.dat
1 308 170 -120 150 1 0 0 0 1 0 0 0 1 3005.dat
1 308 -100 -120 170 1 0 0 0 1 0 0 0 1 3010.dat
1 308 -20 -120 170 1 0 0 0 1 0 0 0 1 3010.dat
0 STEP
0 // Shape the belly · rear
1 308 60 -120 170 1 0 0 0 1 0 0 0 1 3010.dat
1 308 110 -120 170 1 0 0 0 1 0 0 0 1 3005.dat
1 308 150 -120 170 1 0 0 0 1 0 0 0 1 3005.dat
1 70 -80 -120 190 1 0 0 0 1 0 0 0 1 3010.dat
0 STEP
0 // Shape the belly · rear
1 70 0 -120 190 1 0 0 0 1 0 0 0 1 3010.dat
1 70 80 -120 190 1 0 0 0 1 0 0 0 1 3010.dat
0 STEP
0 // Shape the belly · front
1 19 -80 -144 0 1 0 0 0 1 0 0 0 1 3001.dat
1 19 0 -144 0 1 0 0 0 1 0 0 0 1 3001.dat
1 19 80 -144 0 1 0 0 0 1 0 0 0 1 3001.dat
1 308 -140 -144 60 0 0 -1 0 1 0 1 0 0 3001.dat
0 STEP
0 // Shape the belly · front
1 19 -80 -144 30 1 0 0 0 1 0 0 0 1 3010.dat
1 19 0 -144 30 1 0 0 0 1 0 0 0 1 3010.dat
1 19 80 -144 30 1 0 0 0 1 0 0 0 1 3010.dat
1 308 140 -144 60 0 0 -1 0 1 0 1 0 0 3001.dat
0 STEP
0 // Shape the belly · front
1 308 -180 -144 80 0 0 -1 0 1 0 1 0 0 3001.dat
1 308 -100 -144 80 0 0 -1 0 1 0 1 0 0 3001.dat
1 308 -60 -144 80 0 0 -1 0 1 0 1 0 0 3001.dat
1 308 -20 -144 80 0 0 -1 0 1 0 1 0 0 3001.dat
0 STEP
0 // Shape the belly · front
1 308 20 -144 80 0 0 -1 0 1 0 1 0 0 3001.dat
1 308 60 -144 80 0 0 -1 0 1 0 1 0 0 3001.dat
1 308 100 -144 80 0 0 -1 0 1 0 1 0 0 3001.dat
1 308 180 -144 80 0 0 -1 0 1 0 1 0 0 3001.dat
0 STEP
0 // Shape the belly · front
1 308 -210 -144 100 0 0 -1 0 1 0 1 0 0 3010.dat
1 308 210 -144 100 0 0 -1 0 1 0 1 0 0 3010.dat
1 308 -140 -144 140 0 0 -1 0 1 0 1 0 0 3001.dat
1 308 140 -144 140 0 0 -1 0 1 0 1 0 0 3001.dat
0 STEP
0 // Shape the belly · rear
1 308 -180 -144 140 0 0 -1 0 1 0 1 0 0 3003.dat
1 308 -100 -144 160 0 0 -1 0 1 0 1 0 0 3001.dat
1 308 -60 -144 160 0 0 -1 0 1 0 1 0 0 3001.dat
1 308 -20 -144 160 0 0 -1 0 1 0 1 0 0 3001.dat
0 STEP
0 // Shape the belly · rear
1 308 20 -144 160 0 0 -1 0 1 0 1 0 0 3001.dat
1 308 60 -144 160 0 0 -1 0 1 0 1 0 0 3001.dat
1 308 100 -144 160 0 0 -1 0 1 0 1 0 0 3001.dat
1 308 180 -144 140 0 0 -1 0 1 0 1 0 0 3003.dat
0 STEP
0 // Add left quill attachment studs
1 308 -210 -168 70 0 0 1 0 1 0 -1 0 0 87087.dat
0 STEP
0 // Add left quill attachment studs
1 308 -210 -168 110 0 0 1 0 1 0 -1 0 0 87087.dat
0 STEP
0 // Add left quill attachment studs
1 308 -190 -168 50 0 0 1 0 1 0 -1 0 0 87087.dat
0 STEP
0 // Add back quill attachment studs
1 308 -170 -168 150 -1 0 0 0 1 0 0 0 -1 87087.dat
1 308 -150 -168 170 -1 0 0 0 1 0 0 0 -1 87087.dat
1 308 -90 -168 190 -1 0 0 0 1 0 0 0 -1 87087.dat
1 308 -50 -168 190 -1 0 0 0 1 0 0 0 -1 87087.dat
0 STEP
0 // Add back quill attachment studs
1 308 -10 -168 190 -1 0 0 0 1 0 0 0 -1 87087.dat
1 308 30 -168 190 -1 0 0 0 1 0 0 0 -1 87087.dat
1 308 70 -168 190 -1 0 0 0 1 0 0 0 -1 87087.dat
1 308 110 -168 190 -1 0 0 0 1 0 0 0 -1 87087.dat
0 STEP
0 // Add back quill attachment studs
1 308 130 -168 170 -1 0 0 0 1 0 0 0 -1 87087.dat
0 STEP
0 // Add right quill attachment studs
1 308 150 -168 30 0 0 -1 0 1 0 1 0 0 87087.dat
0 STEP
0 // Add front quill attachment studs
1 308 170 -168 50 1 0 0 0 1 0 0 0 1 87087.dat
0 STEP
0 // Add back quill attachment studs
1 308 190 -168 150 -1 0 0 0 1 0 0 0 -1 87087.dat
0 STEP
0 // Add right quill attachment studs
1 308 210 -168 90 0 0 -1 0 1 0 1 0 0 87087.dat
0 STEP
0 // Add back quill attachment studs
1 308 210 -168 130 -1 0 0 0 1 0 0 0 -1 87087.dat
0 STEP
0 // Shape the belly · front
1 19 -80 -168 0 1 0 0 0 1 0 0 0 1 3001.dat
1 19 0 -168 0 1 0 0 0 1 0 0 0 1 3001.dat
1 19 80 -168 0 1 0 0 0 1 0 0 0 1 3001.dat
1 308 -140 -168 60 0 0 -1 0 1 0 1 0 0 3001.dat
0 STEP
0 // Shape the belly · front
1 19 -80 -168 30 1 0 0 0 1 0 0 0 1 3010.dat
1 19 0 -168 30 1 0 0 0 1 0 0 0 1 3010.dat
1 19 80 -168 30 1 0 0 0 1 0 0 0 1 3010.dat
1 308 130 -168 60 0 0 -1 0 1 0 1 0 0 3010.dat
0 STEP
0 // Shape the belly · front
1 308 -170 -168 80 0 0 -1 0 1 0 1 0 0 3010.dat
1 308 -80 -168 60 1 0 0 0 1 0 0 0 1 3001.dat
1 308 0 -168 60 1 0 0 0 1 0 0 0 1 3001.dat
1 308 80 -168 60 1 0 0 0 1 0 0 0 1 3001.dat
0 STEP
0 // Shape the belly · front
1 308 150 -168 80 0 0 -1 0 1 0 1 0 0 3010.dat
1 308 190 -168 80 0 0 -1 0 1 0 1 0 0 3010.dat
1 308 -190 -168 100 0 0 -1 0 1 0 1 0 0 3010.dat
1 308 170 -168 100 0 0 -1 0 1 0 1 0 0 3010.dat
0 STEP
0 // Shape the belly · front
1 308 210 -168 70 1 0 0 0 1 0 0 0 1 3005.dat
1 308 -210 -168 90 1 0 0 0 1 0 0 0 1 3005.dat
1 308 -80 -168 100 1 0 0 0 1 0 0 0 1 3001.dat
1 308 0 -168 100 1 0 0 0 1 0 0 0 1 3001.dat
0 STEP
0 // Shape the belly · front
1 308 80 -168 100 1 0 0 0 1 0 0 0 1 3001.dat
1 308 -140 -168 130 0 0 -1 0 1 0 1 0 0 3002.dat
1 308 130 -168 120 0 0 -1 0 1 0 1 0 0 3004.dat
1 308 210 -168 110 1 0 0 0 1 0 0 0 1 3005.dat
0 STEP
0 // Shape the belly · rear
1 308 -210 -168 130 1 0 0 0 1 0 0 0 1 3005.dat
1 308 -170 -168 130 1 0 0 0 1 0 0 0 1 3005.dat
1 308 -80 -168 140 1 0 0 0 1 0 0 0 1 3001.dat
1 308 0 -168 140 1 0 0 0 1 0 0 0 1 3001.dat
0 STEP
0 // Shape the belly · rear
1 308 80 -168 140 1 0 0 0 1 0 0 0 1 3001.dat
1 308 150 -168 140 0 0 -1 0 1 0 1 0 0 3004.dat
1 308 190 -168 130 1 0 0 0 1 0 0 0 1 3005.dat
1 308 -190 -168 150 1 0 0 0 1 0 0 0 1 3005.dat
0 STEP
0 // Shape the belly · rear
1 308 130 -168 150 1 0 0 0 1 0 0 0 1 3005.dat
1 308 170 -168 150 1 0 0 0 1 0 0 0 1 3005.dat
1 308 -100 -168 170 1 0 0 0 1 0 0 0 1 3010.dat
1 308 -20 -168 170 1 0 0 0 1 0 0 0 1 3010.dat
0 STEP
0 // Shape the belly · rear
1 308 60 -168 170 1 0 0 0 1 0 0 0 1 3010.dat
1 308 110 -168 170 1 0 0 0 1 0 0 0 1 3005.dat
1 308 150 -168 170 1 0 0 0 1 0 0 0 1 3005.dat
1 308 -110 -168 190 1 0 0 0 1 0 0 0 1 3005.dat
0 STEP
0 // Shape the belly · rear
1 308 -70 -168 190 1 0 0 0 1 0 0 0 1 3005.dat
1 308 -30 -168 190 1 0 0 0 1 0 0 0 1 3005.dat
1 308 10 -168 190 1 0 0 0 1 0 0 0 1 3005.dat
1 308 50 -168 190 1 0 0 0 1 0 0 0 1 3005.dat
0 STEP
0 // Shape the belly · rear
1 308 90 -168 190 1 0 0 0 1 0 0 0 1 3005.dat
0 STEP
0 // Shape the belly · front
1 19 -80 -192 0 1 0 0 0 1 0 0 0 1 3001.dat
1 19 0 -192 0 1 0 0 0 1 0 0 0 1 3001.dat
1 19 80 -192 0 1 0 0 0 1 0 0 0 1 3001.dat
1 308 -140 -192 60 0 0 -1 0 1 0 1 0 0 3001.dat
0 STEP
0 // Shape the belly · front
1 19 -80 -192 30 1 0 0 0 1 0 0 0 1 3010.dat
1 19 0 -192 30 1 0 0 0 1 0 0 0 1 3010.dat
1 19 80 -192 30 1 0 0 0 1 0 0 0 1 3010.dat
1 308 140 -192 60 0 0 -1 0 1 0 1 0 0 3001.dat
0 STEP
0 // Shape the belly · front
1 308 -180 -192 80 0 0 -1 0 1 0 1 0 0 3001.dat
1 308 -100 -192 80 0 0 -1 0 1 0 1 0 0 3001.dat
1 308 -60 -192 80 0 0 -1 0 1 0 1 0 0 3001.dat
1 308 -20 -192 80 0 0 -1 0 1 0 1 0 0 3001.dat
0 STEP
0 // Shape the belly · front
1 308 20 -192 80 0 0 -1 0 1 0 1 0 0 3001.dat
1 308 60 -192 80 0 0 -1 0 1 0 1 0 0 3001.dat
1 308 100 -192 80 0 0 -1 0 1 0 1 0 0 3001.dat
1 308 180 -192 80 0 0 -1 0 1 0 1 0 0 3001.dat
0 STEP
0 // Shape the belly · front
1 308 -210 -192 100 0 0 -1 0 1 0 1 0 0 3010.dat
1 308 210 -192 100 0 0 -1 0 1 0 1 0 0 3010.dat
1 308 -140 -192 140 0 0 -1 0 1 0 1 0 0 3001.dat
1 308 140 -192 140 0 0 -1 0 1 0 1 0 0 3001.dat
0 STEP
0 // Shape the belly · rear
1 308 -180 -192 140 0 0 -1 0 1 0 1 0 0 3003.dat
1 308 -100 -192 160 0 0 -1 0 1 0 1 0 0 3001.dat
1 308 -60 -192 160 0 0 -1 0 1 0 1 0 0 3001.dat
1 308 -20 -192 160 0 0 -1 0 1 0 1 0 0 3001.dat
0 STEP
0 // Shape the belly · rear
1 308 20 -192 160 0 0 -1 0 1 0 1 0 0 3001.dat
1 308 60 -192 160 0 0 -1 0 1 0 1 0 0 3001.dat
1 308 100 -192 160 0 0 -1 0 1 0 1 0 0 3001.dat
1 308 180 -192 140 0 0 -1 0 1 0 1 0 0 3003.dat
0 STEP
0 // Add quill tips
1 308 190 -192 50 0 0 1 0 1 0 -1 0 0 54200.dat
1 308 210 -192 70 0 0 1 0 1 0 -1 0 0 54200.dat
1 308 -210 -192 90 0 0 -1 0 1 0 1 0 0 54200.dat
1 308 210 -192 110 0 0 1 0 1 0 -1 0 0 54200.dat
0 STEP
0 // Add quill tips
1 308 -210 -192 130 0 0 -1 0 1 0 1 0 0 54200.dat
1 308 -190 -192 150 0 0 -1 0 1 0 1 0 0 54200.dat
1 308 -110 -192 190 0 0 -1 0 1 0 1 0 0 54200.dat
0 STEP
0 // Add left quill attachment studs
1 308 -190 -216 90 0 0 1 0 1 0 -1 0 0 87087.dat
0 STEP
0 // Add back quill attachment studs
1 308 -190 -216 130 -1 0 0 0 1 0 0 0 -1 87087.dat
1 308 -170 -216 150 -1 0 0 0 1 0 0 0 -1 87087.dat
1 308 -150 -216 170 -1 0 0 0 1 0 0 0 -1 87087.dat
1 308 -110 -216 170 -1 0 0 0 1 0 0 0 -1 87087.dat
0 STEP
0 // Add back quill attachment studs
1 308 130 -216 170 -1 0 0 0 1 0 0 0 -1 87087.dat
0 STEP
0 // Add right quill attachment studs
1 308 150 -216 30 0 0 -1 0 1 0 1 0 0 87087.dat
1 308 170 -216 50 0 0 -1 0 1 0 1 0 0 87087.dat
1 308 190 -216 70 0 0 -1 0 1 0 1 0 0 87087.dat
0 STEP
0 // Add right quill attachment studs
1 308 190 -216 110 0 0 -1 0 1 0 1 0 0 87087.dat
0 STEP
0 // Round the shoulders · front
1 19 -80 -216 0 1 0 0 0 1 0 0 0 1 3001.dat
1 19 0 -216 0 1 0 0 0 1 0 0 0 1 3001.dat
1 19 80 -216 0 1 0 0 0 1 0 0 0 1 3001.dat
1 308 -140 -216 60 0 0 -1 0 1 0 1 0 0 3001.dat
0 STEP
0 // Round the shoulders · front
1 19 -80 -216 30 1 0 0 0 1 0 0 0 1 3010.dat
1 19 0 -216 30 1 0 0 0 1 0 0 0 1 3010.dat
1 19 80 -216 30 1 0 0 0 1 0 0 0 1 3010.dat
1 308 130 -216 60 0 0 -1 0 1 0 1 0 0 3010.dat
0 STEP
0 // Round the shoulders · front
1 308 -170 -216 80 0 0 -1 0 1 0 1 0 0 3010.dat
1 308 -80 -216 60 1 0 0 0 1 0 0 0 1 3001.dat
1 308 0 -216 60 1 0 0 0 1 0 0 0 1 3001.dat
1 308 80 -216 60 1 0 0 0 1 0 0 0 1 3001.dat
0 STEP
0 // Round the shoulders · front
1 308 150 -216 80 0 0 -1 0 1 0 1 0 0 3010.dat
1 308 -190 -216 70 1 0 0 0 1 0 0 0 1 3005.dat
1 308 170 -216 100 0 0 -1 0 1 0 1 0 0 3010.dat
1 308 -80 -216 100 1 0 0 0 1 0 0 0 1 3001.dat
0 STEP
0 // Round the shoulders · front
1 308 0 -216 100 1 0 0 0 1 0 0 0 1 3001.dat
1 308 80 -216 100 1 0 0 0 1 0 0 0 1 3001.dat
1 308 190 -216 90 1 0 0 0 1 0 0 0 1 3005.dat
1 308 -190 -216 110 1 0 0 0 1 0 0 0 1 3005.dat
0 STEP
0 // Round the shoulders · front
1 308 -140 -216 130 0 0 -1 0 1 0 1 0 0 3002.dat
1 308 130 -216 120 0 0 -1 0 1 0 1 0 0 3004.dat
0 STEP
0 // Round the shoulders · rear
1 308 -170 -216 130 1 0 0 0 1 0 0 0 1 3005.dat
1 308 -80 -216 140 1 0 0 0 1 0 0 0 1 3001.dat
1 308 0 -216 140 1 0 0 0 1 0 0 0 1 3001.dat
1 308 80 -216 140 1 0 0 0 1 0 0 0 1 3001.dat
0 STEP
0 // Round the shoulders · rear
1 308 150 -216 140 0 0 -1 0 1 0 1 0 0 3004.dat
1 308 190 -216 130 1 0 0 0 1 0 0 0 1 3005.dat
1 308 130 -216 150 1 0 0 0 1 0 0 0 1 3005.dat
1 308 170 -216 150 1 0 0 0 1 0 0 0 1 3005.dat
0 STEP
0 // Round the shoulders · rear
1 308 -130 -216 170 1 0 0 0 1 0 0 0 1 3005.dat
1 308 -60 -216 170 1 0 0 0 1 0 0 0 1 3010.dat
1 308 20 -216 170 1 0 0 0 1 0 0 0 1 3010.dat
1 308 80 -216 170 1 0 0 0 1 0 0 0 1 3004.dat
0 STEP
0 // Round the shoulders · rear
1 308 110 -216 170 1 0 0 0 1 0 0 0 1 3005.dat
1 308 150 -216 170 1 0 0 0 1 0 0 0 1 3005.dat
1 70 -60 -216 190 1 0 0 0 1 0 0 0 1 3010.dat
1 70 20 -216 190 1 0 0 0 1 0 0 0 1 3010.dat
0 STEP
0 // Round the shoulders · rear
1 70 80 -216 190 1 0 0 0 1 0 0 0 1 3004.dat
0 STEP
0 // Round the shoulders · front
1 19 -60 -240 20 1 0 0 0 1 0 0 0 1 3001.dat
1 19 20 -240 20 1 0 0 0 1 0 0 0 1 3001.dat
1 19 80 -240 20 0 0 -1 0 1 0 1 0 0 3003.dat
1 308 -140 -240 60 0 0 -1 0 1 0 1 0 0 3001.dat
0 STEP
0 // Round the shoulders · front
1 308 -110 -240 60 0 0 -1 0 1 0 1 0 0 3010.dat
1 308 120 -240 60 0 0 -1 0 1 0 1 0 0 3001.dat
1 308 150 -240 60 0 0 -1 0 1 0 1 0 0 3010.dat
1 308 -170 -240 80 0 0 -1 0 1 0 1 0 0 3010.dat
0 STEP
0 // Round the shoulders · front
1 308 -80 -240 80 0 0 -1 0 1 0 1 0 0 3001.dat
1 308 -40 -240 80 0 0 -1 0 1 0 1 0 0 3001.dat
1 308 0 -240 80 0 0 -1 0 1 0 1 0 0 3001.dat
1 308 40 -240 80 0 0 -1 0 1 0 1 0 0 3001.dat
0 STEP
0 // Round the shoulders · front
1 308 80 -240 80 0 0 -1 0 1 0 1 0 0 3001.dat
1 308 170 -240 80 0 0 -1 0 1 0 1 0 0 3010.dat
1 308 -190 -240 100 0 0 -1 0 1 0 1 0 0 3010.dat
1 308 190 -240 100 0 0 -1 0 1 0 1 0 0 3010.dat
0 STEP
0 // Round the shoulders · front
1 308 -140 -240 140 0 0 -1 0 1 0 1 0 0 3001.dat
1 308 -110 -240 140 0 0 -1 0 1 0 1 0 0 3010.dat
1 308 120 -240 140 0 0 -1 0 1 0 1 0 0 3001.dat
1 308 150 -240 140 0 0 -1 0 1 0 1 0 0 3010.dat
0 STEP
0 // Round the shoulders · rear
1 308 -170 -240 140 0 0 -1 0 1 0 1 0 0 3004.dat
1 308 -80 -240 160 0 0 -1 0 1 0 1 0 0 3001.dat
1 308 -40 -240 160 0 0 -1 0 1 0 1 0 0 3001.dat
1 308 0 -240 160 0 0 -1 0 1 0 1 0 0 3001.dat
0 STEP
0 // Round the shoulders · rear
1 308 40 -240 160 0 0 -1 0 1 0 1 0 0 3001.dat
1 308 80 -240 160 0 0 -1 0 1 0 1 0 0 3001.dat
1 308 170 -240 140 0 0 -1 0 1 0 1 0 0 3004.dat
0 STEP
0 // Add left quill attachment studs
1 308 -190 -264 90 0 0 1 0 1 0 -1 0 0 87087.dat
0 STEP
0 // Add back quill attachment studs
1 308 -190 -264 130 -1 0 0 0 1 0 0 0 -1 87087.dat
1 308 -170 -264 150 -1 0 0 0 1 0 0 0 -1 87087.dat
1 308 -150 -264 170 -1 0 0 0 1 0 0 0 -1 87087.dat
1 308 -110 -264 170 -1 0 0 0 1 0 0 0 -1 87087.dat
0 STEP
0 // Add back quill attachment studs
1 308 -90 -264 190 -1 0 0 0 1 0 0 0 -1 87087.dat
1 308 -50 -264 190 -1 0 0 0 1 0 0 0 -1 87087.dat
1 308 -10 -264 190 -1 0 0 0 1 0 0 0 -1 87087.dat
1 308 30 -264 190 -1 0 0 0 1 0 0 0 -1 87087.dat
0 STEP
0 // Add back quill attachment studs
1 308 70 -264 190 -1 0 0 0 1 0 0 0 -1 87087.dat
1 308 130 -264 170 -1 0 0 0 1 0 0 0 -1 87087.dat
0 STEP
0 // Add right quill attachment studs
1 308 150 -264 30 0 0 -1 0 1 0 1 0 0 87087.dat
1 308 170 -264 50 0 0 -1 0 1 0 1 0 0 87087.dat
1 308 190 -264 70 0 0 -1 0 1 0 1 0 0 87087.dat
0 STEP
0 // Add right quill attachment studs
1 308 190 -264 110 0 0 -1 0 1 0 1 0 0 87087.dat
0 STEP
0 // Round the shoulders · front
1 19 -60 -264 20 1 0 0 0 1 0 0 0 1 3001.dat
1 19 20 -264 20 1 0 0 0 1 0 0 0 1 3001.dat
1 19 80 -264 20 1 0 0 0 1 0 0 0 1 3003.dat
1 308 -140 -264 60 0 0 -1 0 1 0 1 0 0 3001.dat
0 STEP
0 // Round the shoulders · front
1 308 -110 -264 60 0 0 -1 0 1 0 1 0 0 3010.dat
1 308 120 -264 60 0 0 -1 0 1 0 1 0 0 3001.dat
1 308 -170 -264 80 0 0 -1 0 1 0 1 0 0 3010.dat
1 308 -60 -264 60 1 0 0 0 1 0 0 0 1 3001.dat
0 STEP
0 // Round the shoulders · front
1 308 20 -264 60 1 0 0 0 1 0 0 0 1 3001.dat
1 308 80 -264 80 0 0 -1 0 1 0 1 0 0 3001.dat
1 308 150 -264 80 0 0 -1 0 1 0 1 0 0 3010.dat
1 308 -190 -264 70 1 0 0 0 1 0 0 0 1 3005.dat
0 STEP
0 // Round the shoulders · front
1 308 170 -264 100 0 0 -1 0 1 0 1 0 0 3010.dat
1 308 -60 -264 100 1 0 0 0 1 0 0 0 1 3001.dat
1 308 20 -264 100 1 0 0 0 1 0 0 0 1 3001.dat
1 308 190 -264 90 1 0 0 0 1 0 0 0 1 3005.dat
0 STEP
0 // Round the shoulders · front
1 308 -190 -264 110 1 0 0 0 1 0 0 0 1 3005.dat
1 308 -130 -264 120 1 0 0 0 1 0 0 0 1 3002.dat
1 308 120 -264 130 0 0 -1 0 1 0 1 0 0 3002.dat
0 STEP
0 // Round the shoulders · rear
1 308 -170 -264 130 1 0 0 0 1 0 0 0 1 3005.dat
1 308 -60 -264 140 1 0 0 0 1 0 0 0 1 3001.dat
1 308 20 -264 140 1 0 0 0 1 0 0 0 1 3001.dat
1 308 80 -264 150 0 0 -1 0 1 0 1 0 0 3002.dat
0 STEP
0 // Round the shoulders · rear
1 308 150 -264 140 0 0 -1 0 1 0 1 0 0 3004.dat
1 308 190 -264 130 1 0 0 0 1 0 0 0 1 3005.dat
1 308 -140 -264 150 1 0 0 0 1 0 0 0 1 3004.dat
1 308 -110 -264 150 1 0 0 0 1 0 0 0 1 3005.dat
0 STEP
0 // Round the shoulders · rear
1 308 170 -264 150 1 0 0 0 1 0 0 0 1 3005.dat
1 308 -130 -264 170 1 0 0 0 1 0 0 0 1 3005.dat
1 308 -60 -264 170 1 0 0 0 1 0 0 0 1 3010.dat
1 308 20 -264 170 1 0 0 0 1 0 0 0 1 3010.dat
0 STEP
0 // Round the shoulders · rear
1 308 110 -264 170 1 0 0 0 1 0 0 0 1 3005.dat
1 308 150 -264 170 1 0 0 0 1 0 0 0 1 3005.dat
1 308 -70 -264 190 1 0 0 0 1 0 0 0 1 3005.dat
1 308 -30 -264 190 1 0 0 0 1 0 0 0 1 3005.dat
0 STEP
0 // Round the shoulders · rear
1 308 10 -264 190 1 0 0 0 1 0 0 0 1 3005.dat
1 308 50 -264 190 1 0 0 0 1 0 0 0 1 3005.dat
1 308 90 -264 190 1 0 0 0 1 0 0 0 1 3005.dat
0 STEP
0 // Add quill tips
1 308 170 -264 50 0 0 1 0 1 0 -1 0 0 54200.dat
1 70 190 -264 70 0 0 1 0 1 0 -1 0 0 54200.dat
1 308 -190 -264 90 0 0 -1 0 1 0 1 0 0 54200.dat
1 308 190 -264 110 0 0 1 0 1 0 -1 0 0 54200.dat
0 STEP
0 // Add quill tips
1 70 -190 -264 130 0 0 -1 0 1 0 1 0 0 54200.dat
1 308 -170 -264 150 0 0 -1 0 1 0 1 0 0 54200.dat
1 70 -150 -264 170 0 0 -1 0 1 0 1 0 0 54200.dat
0 STEP
0 // Round the shoulders · front
1 19 -60 -288 0 1 0 0 0 1 0 0 0 1 3001.dat
1 19 20 -288 0 1 0 0 0 1 0 0 0 1 3001.dat
1 19 80 -288 10 0 0 -1 0 1 0 1 0 0 3002.dat
1 308 -120 -288 60 0 0 -1 0 1 0 1 0 0 3001.dat
0 STEP
0 // Round the shoulders · front
1 19 -60 -288 30 1 0 0 0 1 0 0 0 1 3010.dat
1 19 20 -288 30 1 0 0 0 1 0 0 0 1 3010.dat
1 308 120 -288 60 0 0 -1 0 1 0 1 0 0 3001.dat
1 308 -150 -288 80 0 0 -1 0 1 0 1 0 0 3010.dat
0 STEP
0 // Round the shoulders · front
1 308 -80 -288 80 0 0 -1 0 1 0 1 0 0 3001.dat
1 308 -40 -288 80 0 0 -1 0 1 0 1 0 0 3001.dat
1 308 0 -288 80 0 0 -1 0 1 0 1 0 0 3001.dat
1 308 40 -288 80 0 0 -1 0 1 0 1 0 0 3001.dat
0 STEP
0 // Round the shoulders · front
1 308 80 -288 80 0 0 -1 0 1 0 1 0 0 3001.dat
1 308 150 -288 80 0 0 -1 0 1 0 1 0 0 3010.dat
1 308 -170 -288 100 0 0 -1 0 1 0 1 0 0 3010.dat
1 308 170 -288 100 0 0 -1 0 1 0 1 0 0 3010.dat
0 STEP
0 // Round the shoulders · front
1 308 -120 -288 140 0 0 -1 0 1 0 1 0 0 3001.dat
1 308 120 -288 140 0 0 -1 0 1 0 1 0 0 3001.dat
0 STEP
0 // Round the shoulders · rear
1 308 -150 -288 140 0 0 -1 0 1 0 1 0 0 3004.dat
1 308 -80 -288 160 0 0 -1 0 1 0 1 0 0 3001.dat
1 308 -40 -288 160 0 0 -1 0 1 0 1 0 0 3001.dat
1 308 0 -288 160 0 0 -1 0 1 0 1 0 0 3001.dat
0 STEP
0 // Round the shoulders · rear
1 308 40 -288 160 0 0 -1 0 1 0 1 0 0 3001.dat
1 308 80 -288 160 0 0 -1 0 1 0 1 0 0 3001.dat
1 308 150 -288 140 0 0 -1 0 1 0 1 0 0 3004.dat
0 STEP
0 // Add face and limb attachment bricks
1 19 -50 -312 -10 1 0 0 0 1 0 0 0 1 87087.dat
1 19 -30 -312 -10 1 0 0 0 1 0 0 0 1 87087.dat
1 19 -10 -312 -10 1 0 0 0 1 0 0 0 1 87087.dat
1 19 10 -312 -10 1 0 0 0 1 0 0 0 1 87087.dat
0 STEP
0 // Add face and limb attachment bricks
1 19 30 -312 -10 1 0 0 0 1 0 0 0 1 87087.dat
1 19 50 -312 -10 1 0 0 0 1 0 0 0 1 87087.dat
0 STEP
0 // Add left quill attachment studs
1 308 -170 -312 70 0 0 1 0 1 0 -1 0 0 87087.dat
0 STEP
0 // Add left quill attachment studs
1 308 -170 -312 110 0 0 1 0 1 0 -1 0 0 87087.dat
0 STEP
0 // Add left quill attachment studs
1 308 -150 -312 50 0 0 1 0 1 0 -1 0 0 87087.dat
1 308 -130 -312 30 0 0 1 0 1 0 -1 0 0 87087.dat
0 STEP
0 // Add back quill attachment studs
1 308 -110 -312 170 -1 0 0 0 1 0 0 0 -1 87087.dat
1 308 130 -312 170 -1 0 0 0 1 0 0 0 -1 87087.dat
1 308 150 -312 150 -1 0 0 0 1 0 0 0 -1 87087.dat
0 STEP
0 // Add right quill attachment studs
1 308 170 -312 90 0 0 -1 0 1 0 1 0 0 87087.dat
0 STEP
0 // Add back quill attachment studs
1 308 170 -312 130 -1 0 0 0 1 0 0 0 -1 87087.dat
0 STEP
0 // Build the head · front
1 19 -80 -312 10 0 0 -1 0 1 0 1 0 0 3002.dat
1 19 80 -312 10 0 0 -1 0 1 0 1 0 0 3002.dat
1 19 -20 -312 20 1 0 0 0 1 0 0 0 1 3001.dat
1 19 40 -312 20 1 0 0 0 1 0 0 0 1 3003.dat
0 STEP
0 // Build the head · front
1 308 -110 -312 60 0 0 -1 0 1 0 1 0 0 3010.dat
1 308 120 -312 60 0 0 -1 0 1 0 1 0 0 3001.dat
1 308 -130 -312 80 0 0 -1 0 1 0 1 0 0 3010.dat
1 308 -60 -312 60 1 0 0 0 1 0 0 0 1 3001.dat
0 STEP
0 // Build the head · front
1 308 20 -312 60 1 0 0 0 1 0 0 0 1 3001.dat
1 308 80 -312 80 0 0 -1 0 1 0 1 0 0 3001.dat
1 308 150 -312 80 0 0 -1 0 1 0 1 0 0 3010.dat
1 308 -150 -312 100 0 0 -1 0 1 0 1 0 0 3010.dat
0 STEP
0 // Build the head · front
1 308 170 -312 70 1 0 0 0 1 0 0 0 1 3005.dat
1 308 -170 -312 90 1 0 0 0 1 0 0 0 1 3005.dat
1 308 -60 -312 100 1 0 0 0 1 0 0 0 1 3001.dat
1 308 20 -312 100 1 0 0 0 1 0 0 0 1 3001.dat
0 STEP
0 // Build the head · front
1 308 -110 -312 120 0 0 -1 0 1 0 1 0 0 3004.dat
1 308 120 -312 130 0 0 -1 0 1 0 1 0 0 3002.dat
1 308 170 -312 110 1 0 0 0 1 0 0 0 1 3005.dat
0 STEP
0 // Build the head · rear
1 308 -170 -312 130 1 0 0 0 1 0 0 0 1 3005.dat
1 308 -130 -312 140 0 0 -1 0 1 0 1 0 0 3004.dat
1 308 -60 -312 140 1 0 0 0 1 0 0 0 1 3001.dat
1 308 20 -312 140 1 0 0 0 1 0 0 0 1 3001.dat
0 STEP
0 // Build the head · rear
1 308 80 -312 150 0 0 -1 0 1 0 1 0 0 3002.dat
1 308 150 -312 130 1 0 0 0 1 0 0 0 1 3005.dat
1 308 -150 -312 150 1 0 0 0 1 0 0 0 1 3005.dat
1 308 -110 -312 150 1 0 0 0 1 0 0 0 1 3005.dat
0 STEP
0 // Build the head · rear
1 308 -130 -312 170 1 0 0 0 1 0 0 0 1 3005.dat
1 308 -60 -312 170 1 0 0 0 1 0 0 0 1 3010.dat
1 308 20 -312 170 1 0 0 0 1 0 0 0 1 3010.dat
1 308 110 -312 170 1 0 0 0 1 0 0 0 1 3005.dat
0 STEP
0 // Build the head · rear
1 70 -60 -312 190 1 0 0 0 1 0 0 0 1 3010.dat
1 70 20 -312 190 1 0 0 0 1 0 0 0 1 3010.dat
1 70 80 -312 190 1 0 0 0 1 0 0 0 1 3004.dat
0 STEP
0 // Add quill tips
1 308 -150 -312 50 0 0 -1 0 1 0 1 0 0 54200.dat
1 308 150 -312 150 0 0 1 0 1 0 -1 0 0 54200.dat
1 308 -110 -312 170 0 0 -1 0 1 0 1 0 0 54200.dat
1 308 130 -312 170 0 0 1 0 1 0 -1 0 0 54200.dat
0 STEP
0 // Add quill tips
1 70 -90 -312 190 -1 0 0 0 1 0 0 0 -1 54200.dat
1 308 -50 -312 190 -1 0 0 0 1 0 0 0 -1 54200.dat
1 70 -10 -312 190 -1 0 0 0 1 0 0 0 -1 54200.dat
1 308 30 -312 190 -1 0 0 0 1 0 0 0 -1 54200.dat
0 STEP
0 // Add quill tips
1 70 70 -312 190 -1 0 0 0 1 0 0 0 -1 54200.dat
0 STEP
0 // Build the head · front
1 19 -60 -336 0 1 0 0 0 1 0 0 0 1 3001.dat
1 19 20 -336 0 1 0 0 0 1 0 0 0 1 3001.dat
1 19 80 -336 10 0 0 -1 0 1 0 1 0 0 3002.dat
1 19 -60 -336 30 1 0 0 0 1 0 0 0 1 3010.dat
0 STEP
0 // Build the head · front
1 19 20 -336 30 1 0 0 0 1 0 0 0 1 3010.dat
1 308 -120 -336 80 0 0 -1 0 1 0 1 0 0 3001.dat
1 308 -80 -336 80 0 0 -1 0 1 0 1 0 0 3001.dat
1 308 -40 -336 80 0 0 -1 0 1 0 1 0 0 3001.dat
0 STEP
0 // Build the head · front
1 308 0 -336 80 0 0 -1 0 1 0 1 0 0 3001.dat
1 308 40 -336 80 0 0 -1 0 1 0 1 0 0 3001.dat
1 308 80 -336 80 0 0 -1 0 1 0 1 0 0 3001.dat
1 308 120 -336 80 0 0 -1 0 1 0 1 0 0 3001.dat
0 STEP
0 // Build the head · front
1 308 -160 -336 100 0 0 -1 0 1 0 1 0 0 3001.dat
1 308 160 -336 100 0 0 -1 0 1 0 1 0 0 3001.dat
0 STEP
0 // Build the head · rear
1 308 -100 -336 140 1 0 0 0 1 0 0 0 1 3001.dat
1 308 -20 -336 140 1 0 0 0 1 0 0 0 1 3001.dat
1 308 60 -336 140 1 0 0 0 1 0 0 0 1 3001.dat
1 308 120 -336 140 0 0 -1 0 1 0 1 0 0 3003.dat
0 STEP
0 // Build the head · rear
1 308 -60 -336 170 1 0 0 0 1 0 0 0 1 3010.dat
1 308 20 -336 170 1 0 0 0 1 0 0 0 1 3010.dat
1 308 80 -336 170 1 0 0 0 1 0 0 0 1 3004.dat
0 STEP
0 // Add quill tips
1 308 170 -336 70 0 0 1 0 1 0 -1 0 0 54200.dat
1 308 -170 -336 90 0 0 -1 0 1 0 1 0 0 54200.dat
1 308 170 -336 110 0 0 1 0 1 0 -1 0 0 54200.dat
1 308 -170 -336 130 0 0 -1 0 1 0 1 0 0 54200.dat
0 STEP
0 // Add quill tips
1 308 -90 -336 170 -1 0 0 0 1 0 0 0 -1 54200.dat
0 STEP
0 // Add face and limb attachment bricks
1 19 -50 -360 -10 1 0 0 0 1 0 0 0 1 87087.dat
1 19 50 -360 -10 1 0 0 0 1 0 0 0 1 87087.dat
0 STEP
0 // Add left quill attachment studs
1 308 -150 -360 90 0 0 1 0 1 0 -1 0 0 87087.dat
0 STEP
0 // Add back quill attachment studs
1 308 -150 -360 130 -1 0 0 0 1 0 0 0 -1 87087.dat
1 308 -130 -360 150 -1 0 0 0 1 0 0 0 -1 87087.dat
0 STEP
0 // Add front quill attachment studs
1 308 -110 -360 50 1 0 0 0 1 0 0 0 1 87087.dat
0 STEP
0 // Add back quill attachment studs
1 308 -90 -360 150 -1 0 0 0 1 0 0 0 -1 87087.dat
1 308 -70 -360 170 -1 0 0 0 1 0 0 0 -1 87087.dat
1 308 -30 -360 170 -1 0 0 0 1 0 0 0 -1 87087.dat
1 308 10 -360 170 -1 0 0 0 1 0 0 0 -1 87087.dat
0 STEP
0 // Add back quill attachment studs
1 308 50 -360 170 -1 0 0 0 1 0 0 0 -1 87087.dat
1 308 110 -360 150 -1 0 0 0 1 0 0 0 -1 87087.dat
0 STEP
0 // Add right quill attachment studs
1 308 130 -360 50 0 0 -1 0 1 0 1 0 0 87087.dat
1 308 150 -360 70 0 0 -1 0 1 0 1 0 0 87087.dat
0 STEP
0 // Add right quill attachment studs
1 308 150 -360 110 0 0 -1 0 1 0 1 0 0 87087.dat
0 STEP
0 // Build the head · front
1 19 -80 -360 10 0 0 -1 0 1 0 1 0 0 3002.dat
1 19 0 -360 0 1 0 0 0 1 0 0 0 1 3001.dat
1 19 80 -360 10 0 0 -1 0 1 0 1 0 0 3002.dat
1 19 -50 -360 20 0 0 -1 0 1 0 1 0 0 3004.dat
0 STEP
0 // Build the head · front
1 19 50 -360 20 0 0 -1 0 1 0 1 0 0 3004.dat
1 19 0 -360 30 1 0 0 0 1 0 0 0 1 3010.dat
1 308 -130 -360 80 0 0 -1 0 1 0 1 0 0 3010.dat
1 308 -60 -360 60 1 0 0 0 1 0 0 0 1 3001.dat
0 STEP
0 // Build the head · front
1 308 20 -360 60 1 0 0 0 1 0 0 0 1 3001.dat
1 308 80 -360 80 0 0 -1 0 1 0 1 0 0 3001.dat
1 308 110 -360 80 0 0 -1 0 1 0 1 0 0 3010.dat
1 308 -150 -360 70 1 0 0 0 1 0 0 0 1 3005.dat
0 STEP
0 // Build the head · front
1 308 -110 -360 100 0 0 -1 0 1 0 1 0 0 3010.dat
1 308 130 -360 100 0 0 -1 0 1 0 1 0 0 3010.dat
1 308 -60 -360 100 1 0 0 0 1 0 0 0 1 3001.dat
1 308 20 -360 100 1 0 0 0 1 0 0 0 1 3001.dat
0 STEP
0 // Build the head · front
1 308 150 -360 90 1 0 0 0 1 0 0 0 1 3005.dat
1 308 -150 -360 110 1 0 0 0 1 0 0 0 1 3005.dat
0 STEP
0 // Build the head · rear
1 308 -130 -360 130 1 0 0 0 1 0 0 0 1 3005.dat
1 308 -60 -360 130 1 0 0 0 1 0 0 0 1 3010.dat
1 308 20 -360 140 1 0 0 0 1 0 0 0 1 3001.dat
1 308 80 -360 140 1 0 0 0 1 0 0 0 1 3003.dat
0 STEP
0 // Build the head · rear
1 308 110 -360 130 1 0 0 0 1 0 0 0 1 3005.dat
1 308 150 -360 130 1 0 0 0 1 0 0 0 1 3005.dat
1 308 -110 -360 150 1 0 0 0 1 0 0 0 1 3005.dat
1 308 -60 -360 150 1 0 0 0 1 0 0 0 1 3004.dat
0 STEP
0 // Build the head · rear
1 308 -30 -360 150 1 0 0 0 1 0 0 0 1 3005.dat
1 308 130 -360 150 1 0 0 0 1 0 0 0 1 3005.dat
1 308 -50 -360 170 1 0 0 0 1 0 0 0 1 3005.dat
1 308 -10 -360 170 1 0 0 0 1 0 0 0 1 3005.dat
0 STEP
0 // Build the head · rear
1 308 30 -360 170 1 0 0 0 1 0 0 0 1 3005.dat
1 308 70 -360 170 1 0 0 0 1 0 0 0 1 3005.dat
0 STEP
0 // Build the head · front
1 19 -60 -384 0 1 0 0 0 1 0 0 0 1 3001.dat
1 19 20 -384 0 1 0 0 0 1 0 0 0 1 3001.dat
1 19 80 -384 10 0 0 -1 0 1 0 1 0 0 3002.dat
1 19 -60 -384 30 1 0 0 0 1 0 0 0 1 3010.dat
0 STEP
0 // Build the head · front
1 19 20 -384 30 1 0 0 0 1 0 0 0 1 3010.dat
1 308 -120 -384 80 0 0 -1 0 1 0 1 0 0 3001.dat
1 308 -80 -384 80 0 0 -1 0 1 0 1 0 0 3001.dat
1 308 -40 -384 80 0 0 -1 0 1 0 1 0 0 3001.dat
0 STEP
0 // Build the head · front
1 308 0 -384 80 0 0 -1 0 1 0 1 0 0 3001.dat
1 308 40 -384 80 0 0 -1 0 1 0 1 0 0 3001.dat
1 308 80 -384 80 0 0 -1 0 1 0 1 0 0 3001.dat
1 308 120 -384 80 0 0 -1 0 1 0 1 0 0 3001.dat
0 STEP
0 // Build the head · front
1 308 -150 -384 100 0 0 -1 0 1 0 1 0 0 3010.dat
1 308 150 -384 100 0 0 -1 0 1 0 1 0 0 3010.dat
0 STEP
0 // Build the head · rear
1 308 -100 -384 140 1 0 0 0 1 0 0 0 1 3001.dat
1 308 -20 -384 140 1 0 0 0 1 0 0 0 1 3001.dat
1 308 60 -384 140 1 0 0 0 1 0 0 0 1 3001.dat
1 308 120 -384 140 0 0 -1 0 1 0 1 0 0 3003.dat
0 STEP
0 // Build the head · rear
1 308 -40 -384 170 1 0 0 0 1 0 0 0 1 3010.dat
1 308 40 -384 170 1 0 0 0 1 0 0 0 1 3010.dat
0 STEP
0 // Add quill tips
1 308 -130 -384 50 0 0 -1 0 1 0 1 0 0 54200.dat
1 308 110 -384 50 0 0 1 0 1 0 -1 0 0 54200.dat
1 308 -150 -384 70 0 0 -1 0 1 0 1 0 0 54200.dat
1 308 130 -384 70 0 0 1 0 1 0 -1 0 0 54200.dat
0 STEP
0 // Add quill tips
1 308 150 -384 90 0 0 1 0 1 0 -1 0 0 54200.dat
1 308 -150 -384 110 0 0 -1 0 1 0 1 0 0 54200.dat
1 308 -130 -384 130 0 0 -1 0 1 0 1 0 0 54200.dat
1 308 150 -384 130 0 0 1 0 1 0 -1 0 0 54200.dat
0 STEP
0 // Add quill tips
1 308 -110 -384 150 0 0 -1 0 1 0 1 0 0 54200.dat
1 308 90 -384 150 -1 0 0 0 1 0 0 0 -1 54200.dat
1 308 130 -384 150 0 0 1 0 1 0 -1 0 0 54200.dat
1 308 -50 -384 170 -1 0 0 0 1 0 0 0 -1 54200.dat
0 STEP
0 // Add quill tips
1 308 -10 -384 170 -1 0 0 0 1 0 0 0 -1 54200.dat
1 308 30 -384 170 -1 0 0 0 1 0 0 0 -1 54200.dat
1 308 70 -384 170 -1 0 0 0 1 0 0 0 -1 54200.dat
0 STEP
0 // Add face and limb attachment bricks
1 19 -90 -408 -10 1 0 0 0 1 0 0 0 1 87087.dat
1 19 -70 -408 -10 1 0 0 0 1 0 0 0 1 87087.dat
1 19 70 -408 -10 1 0 0 0 1 0 0 0 1 87087.dat
1 19 90 -408 -10 1 0 0 0 1 0 0 0 1 87087.dat
0 STEP
0 // Add quill attachment studs
1 308 -130 -408 110 -1 0 0 0 1 0 0 0 -1 87087.dat
1 308 -110 -408 130 -1 0 0 0 1 0 0 0 -1 87087.dat
1 308 -50 -408 150 -1 0 0 0 1 0 0 0 -1 87087.dat
1 308 -10 -408 150 -1 0 0 0 1 0 0 0 -1 87087.dat
0 STEP
0 // Add quill attachment studs
1 308 30 -408 150 -1 0 0 0 1 0 0 0 -1 87087.dat
1 308 70 -408 150 -1 0 0 0 1 0 0 0 -1 87087.dat
0 STEP
0 // Add right quill attachment studs
1 308 90 -408 50 0 0 -1 0 1 0 1 0 0 87087.dat
0 STEP
0 // Add back quill attachment studs
1 308 90 -408 130 -1 0 0 0 1 0 0 0 -1 87087.dat
0 STEP
0 // Add right quill attachment studs
1 308 110 -408 70 0 0 -1 0 1 0 1 0 0 87087.dat
1 308 130 -408 90 0 0 -1 0 1 0 1 0 0 87087.dat
0 STEP
0 // Close the crown · front
1 19 -20 -408 0 1 0 0 0 1 0 0 0 1 3001.dat
1 19 40 -408 10 0 0 -1 0 1 0 1 0 0 3002.dat
1 19 -80 -408 20 1 0 0 0 1 0 0 0 1 3003.dat
1 19 80 -408 20 1 0 0 0 1 0 0 0 1 3003.dat
0 STEP
0 // Close the crown · front
1 19 -20 -408 30 1 0 0 0 1 0 0 0 1 3010.dat
1 308 -60 -408 60 1 0 0 0 1 0 0 0 1 3001.dat
1 308 20 -408 60 1 0 0 0 1 0 0 0 1 3001.dat
1 308 70 -408 80 0 0 -1 0 1 0 1 0 0 3010.dat
0 STEP
0 // Close the crown · front
1 308 -110 -408 80 0 0 -1 0 1 0 1 0 0 3004.dat
1 308 90 -408 80 0 0 -1 0 1 0 1 0 0 3004.dat
1 308 -130 -408 90 1 0 0 0 1 0 0 0 1 3005.dat
1 308 -60 -408 100 1 0 0 0 1 0 0 0 1 3001.dat
0 STEP
0 // Close the crown · front
1 308 20 -408 100 1 0 0 0 1 0 0 0 1 3001.dat
1 308 110 -408 100 0 0 -1 0 1 0 1 0 0 3004.dat
1 308 -110 -408 110 1 0 0 0 1 0 0 0 1 3005.dat
1 308 90 -408 110 1 0 0 0 1 0 0 0 1 3005.dat
0 STEP
0 // Close the crown · front
1 308 130 -408 110 1 0 0 0 1 0 0 0 1 3005.dat
0 STEP
0 // Close the crown · rear
1 308 -60 -408 130 1 0 0 0 1 0 0 0 1 3010.dat
1 308 20 -408 130 1 0 0 0 1 0 0 0 1 3010.dat
1 308 70 -408 130 1 0 0 0 1 0 0 0 1 3005.dat
1 308 110 -408 130 1 0 0 0 1 0 0 0 1 3005.dat
0 STEP
0 // Close the crown · rear
1 308 -70 -408 150 1 0 0 0 1 0 0 0 1 3005.dat
1 308 -30 -408 150 1 0 0 0 1 0 0 0 1 3005.dat
1 308 10 -408 150 1 0 0 0 1 0 0 0 1 3005.dat
1 308 50 -408 150 1 0 0 0 1 0 0 0 1 3005.dat
0 STEP
0 // Add quill tips
1 308 -70 -408 50 1 0 0 0 1 0 0 0 1 54200.dat
1 308 90 -408 50 1 0 0 0 1 0 0 0 1 54200.dat
1 308 -90 -408 70 1 0 0 0 1 0 0 0 1 54200.dat
1 70 110 -408 70 0 0 1 0 1 0 -1 0 0 54200.dat
0 STEP
0 // Add quill tips
1 308 -110 -408 90 0 0 -1 0 1 0 1 0 0 54200.dat
1 308 130 -408 90 0 0 1 0 1 0 -1 0 0 54200.dat
1 308 -130 -408 110 0 0 -1 0 1 0 1 0 0 54200.dat
1 308 110 -408 110 0 0 1 0 1 0 -1 0 0 54200.dat
0 STEP
0 // Add quill tips
1 70 -110 -408 130 0 0 -1 0 1 0 1 0 0 54200.dat
1 308 90 -408 130 -1 0 0 0 1 0 0 0 -1 54200.dat
1 70 -50 -408 150 -1 0 0 0 1 0 0 0 -1 54200.dat
1 308 -10 -408 150 -1 0 0 0 1 0 0 0 -1 54200.dat
0 STEP
0 // Add quill tips
1 70 30 -408 150 -1 0 0 0 1 0 0 0 -1 54200.dat
1 308 70 -408 150 -1 0 0 0 1 0 0 0 -1 54200.dat
0 STEP
0 // Close the crown · front
1 19 -20 -432 20 1 0 0 0 1 0 0 0 1 3001.dat
1 19 40 -432 20 0 0 -1 0 1 0 1 0 0 3003.dat
1 308 -40 -432 80 0 0 -1 0 1 0 1 0 0 3001.dat
1 308 0 -432 80 0 0 -1 0 1 0 1 0 0 3001.dat
0 STEP
0 // Close the crown · front
1 308 40 -432 80 0 0 -1 0 1 0 1 0 0 3001.dat
1 308 -70 -432 100 0 0 -1 0 1 0 1 0 0 3010.dat
1 308 70 -432 100 0 0 -1 0 1 0 1 0 0 3010.dat
1 308 -90 -432 100 0 0 -1 0 1 0 1 0 0 3004.dat
0 STEP
0 // Close the crown · front
1 308 90 -432 100 0 0 -1 0 1 0 1 0 0 3004.dat
0 STEP
0 // Close the crown · rear
1 308 -20 -432 130 1 0 0 0 1 0 0 0 1 3010.dat
1 308 40 -432 130 1 0 0 0 1 0 0 0 1 3004.dat
0 STEP
0 // Add quill tips
1 308 -50 -432 50 1 0 0 0 1 0 0 0 1 54200.dat
1 308 -10 -432 50 1 0 0 0 1 0 0 0 1 54200.dat
1 308 30 -432 50 1 0 0 0 1 0 0 0 1 54200.dat
1 308 -70 -432 70 1 0 0 0 1 0 0 0 1 54200.dat
0 STEP
0 // Add quill tips
1 308 -30 -432 70 1 0 0 0 1 0 0 0 1 54200.dat
1 308 10 -432 70 1 0 0 0 1 0 0 0 1 54200.dat
1 308 50 -432 70 1 0 0 0 1 0 0 0 1 54200.dat
1 308 -90 -432 90 1 0 0 0 1 0 0 0 1 54200.dat
0 STEP
0 // Add quill tips
1 308 70 -432 90 1 0 0 0 1 0 0 0 1 54200.dat
1 308 -70 -432 110 1 0 0 0 1 0 0 0 1 54200.dat
1 308 90 -432 110 1 0 0 0 1 0 0 0 1 54200.dat
1 308 -50 -432 130 -1 0 0 0 1 0 0 0 -1 54200.dat
0 STEP
0 // Add quill tips
1 308 -10 -432 130 -1 0 0 0 1 0 0 0 -1 54200.dat
1 308 30 -432 130 -1 0 0 0 1 0 0 0 -1 54200.dat
1 308 70 -432 130 -1 0 0 0 1 0 0 0 -1 54200.dat
0 STEP
0 // Close the crown · front
1 308 -20 -456 100 1 0 0 0 1 0 0 0 1 3001.dat
1 308 40 -456 100 1 0 0 0 1 0 0 0 1 3003.dat
0 STEP
0 // Add quill tips
1 308 -30 -456 90 1 0 0 0 1 0 0 0 1 54200.dat
1 70 10 -456 90 1 0 0 0 1 0 0 0 1 54200.dat
1 308 50 -456 90 1 0 0 0 1 0 0 0 1 54200.dat
1 308 -50 -456 110 1 0 0 0 1 0 0 0 1 54200.dat
0 STEP
0 // Add quill tips
1 70 -10 -456 110 1 0 0 0 1 0 0 0 1 54200.dat
1 308 30 -456 110 1 0 0 0 1 0 0 0 1 54200.dat
0 STEP
0 // Round the left foot
1 70 -80 -32 -60 1 0 0 0 1 0 0 0 1 3020.dat
1 70 -100 -32 -60 -1 0 0 0 1 0 0 0 -1 15068.dat
1 70 -60 -32 -60 -1 0 0 0 1 0 0 0 -1 15068.dat
0 STEP
0 // Round the right foot
1 70 80 -32 -60 1 0 0 0 1 0 0 0 1 3020.dat
1 70 60 -32 -60 -1 0 0 0 1 0 0 0 -1 15068.dat
1 70 100 -32 -60 -1 0 0 0 1 0 0 0 -1 15068.dat
0 STEP
0 // Attach the left arm
1 70 -80 -140 -28 0 0 -1 -1 0 0 0 1 0 3020.dat
1 70 -80 -120 -28 -1 0 0 0 0 1 0 1 0 15068.dat
1 70 -80 -160 -28 1 0 0 0 0 -1 0 1 0 15068.dat
0 STEP
0 // Attach the right arm
1 70 80 -140 -28 0 0 -1 -1 0 0 0 1 0 3020.dat
1 70 80 -120 -28 -1 0 0 0 0 1 0 1 0 15068.dat
1 70 80 -160 -28 1 0 0 0 0 -1 0 1 0 15068.dat
0 STEP
0 // Build the projecting muzzle
1 19 0 -292 -28 1 0 0 0 0 -1 0 1 0 3032.dat
1 19 -40 -272 -28 0 0 1 1 0 0 0 1 0 15068.dat
1 19 40 -272 -28 0 0 -1 -1 0 0 0 1 0 15068.dat
1 19 0 -272 -36 1 0 0 0 0 -1 0 1 0 3022.dat
0 STEP
0 // Build the projecting muzzle
1 308 0 -282 -44 1 0 0 0 0 -1 0 1 0 3069b.dat
1 19 0 -262 -44 1 0 0 0 0 -1 0 1 0 3069b.dat
0 STEP
0 // Form Max’s arched muzzle
1 308 -30 -302 -36 -1 0 0 0 0 1 0 1 0 27925.dat
1 308 30 -302 -36 0 0 -1 -1 0 0 0 1 0 27925.dat
1 308 0 -322 -36 1 0 0 0 0 -1 0 1 0 3069b.dat
1 19 0 -302 -36 1 0 0 0 0 -1 0 1 0 15573.dat
0 STEP
0 // Form Max’s arched muzzle
1 0 0 -302 -44 1 0 0 0 0 -1 0 1 0 98138.dat
0 STEP
0 // Attach the glossy black eyes
1 0 -50 -350 -28 1 0 0 0 0 -1 0 1 0 98138.dat
0 STEP
0 // Attach the glossy black eyes
1 0 50 -350 -28 1 0 0 0 0 -1 0 1 0 98138.dat
0 STEP
0 // Build the round ears
1 70 -80 -428 -44 1 0 0 0 0 -1 0 1 0 87081.dat
1 19 -80 -448 -52 1 0 0 0 0 -1 0 1 0 14769.dat
0 STEP
0 // Build the round ears
1 70 80 -428 -44 1 0 0 0 0 -1 0 1 0 87081.dat
1 19 80 -448 -52 1 0 0 0 0 -1 0 1 0 14769.dat
0 STEP
0 // Texture the front of the coat
1 308 170 -62 40 1 0 0 0 0 -1 0 1 0 54200.dat
1 308 170 -110 40 1 0 0 0 0 -1 0 1 0 54200.dat
1 70 170 -158 40 1 0 0 0 0 -1 0 1 0 54200.dat
1 70 -110 -350 40 1 0 0 0 0 -1 0 1 0 54200.dat
0 STEP
0 // Texture the left of the coat
1 70 -200 -62 50 0 1 0 0 0 -1 -1 0 0 54200.dat
1 308 -220 -62 70 0 1 0 0 0 -1 -1 0 0 54200.dat
0 STEP
0 // Texture the left of the coat
1 70 -220 -62 110 0 1 0 0 0 -1 -1 0 0 54200.dat
0 STEP
0 // Texture the left of the coat
1 308 -200 -110 50 0 1 0 0 0 -1 -1 0 0 54200.dat
1 308 -220 -110 70 0 1 0 0 0 -1 -1 0 0 54200.dat
0 STEP
0 // Texture the left of the coat
1 308 -220 -110 110 0 1 0 0 0 -1 -1 0 0 54200.dat
0 STEP
0 // Texture the left of the coat
1 308 -200 -158 50 0 1 0 0 0 -1 -1 0 0 54200.dat
1 308 -220 -158 70 0 1 0 0 0 -1 -1 0 0 54200.dat
0 STEP
0 // Texture the left of the coat
1 308 -220 -158 110 0 1 0 0 0 -1 -1 0 0 54200.dat
0 STEP
0 // Texture the left of the coat
1 308 -200 -254 90 0 1 0 0 0 -1 -1 0 0 54200.dat
1 308 -140 -302 30 0 1 0 0 0 -1 -1 0 0 54200.dat
1 308 -160 -302 50 0 1 0 0 0 -1 -1 0 0 54200.dat
1 308 -180 -302 70 0 1 0 0 0 -1 -1 0 0 54200.dat
0 STEP
0 // Texture the left of the coat
1 308 -180 -302 110 0 1 0 0 0 -1 -1 0 0 54200.dat
0 STEP
0 // Texture the back of the coat
1 308 210 -62 140 -1 0 0 0 0 -1 0 -1 0 54200.dat
1 308 -170 -62 160 -1 0 0 0 0 -1 0 -1 0 54200.dat
1 308 190 -62 160 -1 0 0 0 0 -1 0 -1 0 54200.dat
1 308 -150 -62 180 -1 0 0 0 0 -1 0 -1 0 54200.dat
0 STEP
0 // Texture the back of the coat
1 308 130 -62 180 -1 0 0 0 0 -1 0 -1 0 54200.dat
1 308 -90 -62 200 -1 0 0 0 0 -1 0 -1 0 54200.dat
1 308 -50 -62 200 -1 0 0 0 0 -1 0 -1 0 54200.dat
1 308 -10 -62 200 -1 0 0 0 0 -1 0 -1 0 54200.dat
0 STEP
0 // Texture the back of the coat
1 70 30 -62 200 -1 0 0 0 0 -1 0 -1 0 54200.dat
1 308 70 -62 200 -1 0 0 0 0 -1 0 -1 0 54200.dat
1 308 110 -62 200 -1 0 0 0 0 -1 0 -1 0 54200.dat
1 308 210 -110 140 -1 0 0 0 0 -1 0 -1 0 54200.dat
0 STEP
0 // Texture the back of the coat
1 308 -170 -110 160 -1 0 0 0 0 -1 0 -1 0 54200.dat
1 70 190 -110 160 -1 0 0 0 0 -1 0 -1 0 54200.dat
1 70 -150 -110 180 -1 0 0 0 0 -1 0 -1 0 54200.dat
1 308 130 -110 180 -1 0 0 0 0 -1 0 -1 0 54200.dat
0 STEP
0 // Texture the back of the coat
1 70 210 -158 140 -1 0 0 0 0 -1 0 -1 0 54200.dat
1 308 -170 -158 160 -1 0 0 0 0 -1 0 -1 0 54200.dat
1 308 190 -158 160 -1 0 0 0 0 -1 0 -1 0 54200.dat
1 308 -150 -158 180 -1 0 0 0 0 -1 0 -1 0 54200.dat
0 STEP
0 // Texture the back of the coat
1 70 130 -158 180 -1 0 0 0 0 -1 0 -1 0 54200.dat
1 308 -90 -158 200 -1 0 0 0 0 -1 0 -1 0 54200.dat
1 308 -50 -158 200 -1 0 0 0 0 -1 0 -1 0 54200.dat
1 70 -10 -158 200 -1 0 0 0 0 -1 0 -1 0 54200.dat
0 STEP
0 // Texture the back of the coat
1 308 30 -158 200 -1 0 0 0 0 -1 0 -1 0 54200.dat
1 308 70 -158 200 -1 0 0 0 0 -1 0 -1 0 54200.dat
1 308 110 -158 200 -1 0 0 0 0 -1 0 -1 0 54200.dat
1 308 -170 -206 160 -1 0 0 0 0 -1 0 -1 0 54200.dat
0 STEP
0 // Texture the back of the coat
1 308 -150 -206 180 -1 0 0 0 0 -1 0 -1 0 54200.dat
1 308 130 -206 180 -1 0 0 0 0 -1 0 -1 0 54200.dat
1 308 -190 -254 140 -1 0 0 0 0 -1 0 -1 0 54200.dat
1 70 -170 -254 160 -1 0 0 0 0 -1 0 -1 0 54200.dat
0 STEP
0 // Texture the back of the coat
1 308 -150 -254 180 -1 0 0 0 0 -1 0 -1 0 54200.dat
1 70 -110 -254 180 -1 0 0 0 0 -1 0 -1 0 54200.dat
1 308 130 -254 180 -1 0 0 0 0 -1 0 -1 0 54200.dat
1 308 -90 -254 200 -1 0 0 0 0 -1 0 -1 0 54200.dat
0 STEP
0 // Texture the back of the coat
1 70 -50 -254 200 -1 0 0 0 0 -1 0 -1 0 54200.dat
1 308 -10 -254 200 -1 0 0 0 0 -1 0 -1 0 54200.dat
1 308 30 -254 200 -1 0 0 0 0 -1 0 -1 0 54200.dat
1 308 70 -254 200 -1 0 0 0 0 -1 0 -1 0 54200.dat
0 STEP
0 // Texture the back of the coat
1 308 170 -302 140 -1 0 0 0 0 -1 0 -1 0 54200.dat
1 308 150 -302 160 -1 0 0 0 0 -1 0 -1 0 54200.dat
1 308 -110 -302 180 -1 0 0 0 0 -1 0 -1 0 54200.dat
1 308 130 -302 180 -1 0 0 0 0 -1 0 -1 0 54200.dat
0 STEP
0 // Texture the back of the coat
1 308 -150 -350 140 -1 0 0 0 0 -1 0 -1 0 54200.dat
1 308 -130 -350 160 -1 0 0 0 0 -1 0 -1 0 54200.dat
1 308 110 -350 160 -1 0 0 0 0 -1 0 -1 0 54200.dat
1 308 -70 -350 180 -1 0 0 0 0 -1 0 -1 0 54200.dat
0 STEP
0 // Texture the back of the coat
1 308 -30 -350 180 -1 0 0 0 0 -1 0 -1 0 54200.dat
1 308 10 -350 180 -1 0 0 0 0 -1 0 -1 0 54200.dat
1 70 50 -350 180 -1 0 0 0 0 -1 0 -1 0 54200.dat
0 STEP
0 // Texture the right of the coat
1 308 220 -62 90 0 -1 0 0 0 -1 1 0 0 54200.dat
1 70 220 -110 90 0 -1 0 0 0 -1 1 0 0 54200.dat
1 308 220 -158 90 0 -1 0 0 0 -1 1 0 0 54200.dat
1 308 160 -206 30 0 -1 0 0 0 -1 1 0 0 54200.dat
0 STEP
0 // Texture the right of the coat
1 308 160 -254 30 0 -1 0 0 0 -1 1 0 0 54200.dat
1 308 180 -254 50 0 -1 0 0 0 -1 1 0 0 54200.dat
1 70 200 -254 70 0 -1 0 0 0 -1 1 0 0 54200.dat
0 STEP
0 // Texture the right of the coat
1 308 200 -254 110 0 -1 0 0 0 -1 1 0 0 54200.dat
0 STEP
0 // Texture the right of the coat
1 308 180 -302 90 0 -1 0 0 0 -1 1 0 0 54200.dat
1 308 140 -350 50 0 -1 0 0 0 -1 1 0 0 54200.dat
0 STEP
